<svg width="400" height="400" viewBox="0 0 400 400" fill="none" xmlns="http://www.w3.org/2000/svg">
<rect width="400" height="400" fill="#7E4CCB"/>
<path d="M100.304 208.738L108.28 183.008H114.982L103.688 215H99.2275L100.304 208.738ZM92.9434 183.008L100.875 208.738L102.018 215H97.5137L86.2637 183.008H92.9434ZM123.991 191.226V215H118.168V191.226H123.991ZM117.772 185.007C117.772 184.143 118.065 183.425 118.651 182.854C119.252 182.283 120.058 181.997 121.068 181.997C122.079 181.997 122.877 182.283 123.463 182.854C124.064 183.425 124.364 184.143 124.364 185.007C124.364 185.857 124.064 186.567 123.463 187.139C122.877 187.71 122.079 187.996 121.068 187.996C120.058 187.996 119.252 187.71 118.651 187.139C118.065 186.567 117.772 185.857 117.772 185.007ZM135.329 196.082V215H129.528V191.226H135.021L135.329 196.082ZM142.558 191.072L142.47 196.477C142.147 196.418 141.781 196.375 141.371 196.345C140.976 196.316 140.602 196.301 140.25 196.301C139.357 196.301 138.573 196.426 137.899 196.675C137.226 196.909 136.662 197.253 136.208 197.708C135.768 198.162 135.431 198.718 135.197 199.377C134.962 200.022 134.831 200.754 134.801 201.575L133.549 201.421C133.549 199.912 133.703 198.513 134.01 197.224C134.318 195.935 134.765 194.807 135.351 193.84C135.937 192.874 136.669 192.126 137.548 191.599C138.441 191.057 139.467 190.786 140.624 190.786C140.946 190.786 141.291 190.815 141.657 190.874C142.038 190.918 142.338 190.984 142.558 191.072ZM160.421 191.226H165.695V214.275C165.695 216.428 165.226 218.252 164.289 219.746C163.366 221.255 162.069 222.397 160.399 223.174C158.729 223.965 156.789 224.36 154.577 224.36C153.625 224.36 152.592 224.229 151.479 223.965C150.38 223.701 149.318 223.284 148.292 222.712C147.282 222.156 146.439 221.431 145.766 220.537L148.38 217.109C149.171 218.032 150.065 218.728 151.061 219.197C152.057 219.68 153.134 219.922 154.291 219.922C155.463 219.922 156.459 219.702 157.279 219.263C158.114 218.838 158.751 218.208 159.191 217.373C159.645 216.553 159.872 215.542 159.872 214.341V196.653L160.421 191.226ZM144.359 203.398V202.937C144.359 201.121 144.579 199.473 145.019 197.993C145.458 196.499 146.088 195.217 146.908 194.148C147.743 193.079 148.747 192.251 149.918 191.665C151.105 191.079 152.438 190.786 153.917 190.786C155.485 190.786 156.803 191.072 157.873 191.643C158.957 192.214 159.85 193.027 160.553 194.082C161.271 195.137 161.828 196.389 162.223 197.839C162.633 199.275 162.948 200.857 163.168 202.585V203.838C162.963 205.522 162.633 207.068 162.179 208.474C161.74 209.88 161.154 211.111 160.421 212.166C159.689 213.206 158.781 214.011 157.697 214.583C156.613 215.154 155.338 215.439 153.874 215.439C152.409 215.439 151.09 215.139 149.918 214.539C148.747 213.938 147.743 213.096 146.908 212.012C146.088 210.928 145.458 209.653 145.019 208.188C144.579 206.724 144.359 205.127 144.359 203.398ZM150.16 202.937V203.398C150.16 204.424 150.263 205.383 150.468 206.277C150.673 207.17 150.988 207.961 151.413 208.65C151.837 209.324 152.372 209.851 153.017 210.232C153.661 210.613 154.43 210.803 155.324 210.803C156.525 210.803 157.506 210.554 158.268 210.056C159.044 209.543 159.63 208.848 160.026 207.969C160.436 207.075 160.7 206.072 160.817 204.958V201.509C160.744 200.63 160.583 199.817 160.333 199.07C160.099 198.323 159.77 197.678 159.345 197.136C158.92 196.594 158.378 196.169 157.719 195.862C157.06 195.554 156.276 195.4 155.368 195.4C154.489 195.4 153.72 195.598 153.061 195.994C152.401 196.375 151.859 196.909 151.435 197.598C151.01 198.286 150.688 199.084 150.468 199.993C150.263 200.901 150.16 201.882 150.16 202.937ZM177.077 191.226V215H171.254V191.226H177.077ZM170.858 185.007C170.858 184.143 171.151 183.425 171.737 182.854C172.338 182.283 173.144 181.997 174.154 181.997C175.165 181.997 175.963 182.283 176.549 182.854C177.15 183.425 177.45 184.143 177.45 185.007C177.45 185.857 177.15 186.567 176.549 187.139C175.963 187.71 175.165 187.996 174.154 187.996C173.144 187.996 172.338 187.71 171.737 187.139C171.151 186.567 170.858 185.857 170.858 185.007ZM188.766 181.25V215H182.943V181.25H188.766ZM200.346 196.433H203.62C204.777 196.433 205.729 196.235 206.476 195.84C207.238 195.43 207.802 194.873 208.168 194.17C208.549 193.452 208.739 192.625 208.739 191.687C208.739 190.764 208.571 189.966 208.234 189.292C207.897 188.604 207.384 188.076 206.696 187.71C206.022 187.329 205.158 187.139 204.103 187.139C203.253 187.139 202.47 187.307 201.752 187.644C201.049 187.981 200.485 188.464 200.06 189.094C199.65 189.709 199.445 190.449 199.445 191.313H193.622C193.622 189.585 194.076 188.069 194.984 186.765C195.907 185.447 197.152 184.414 198.72 183.667C200.287 182.92 202.038 182.546 203.971 182.546C206.081 182.546 207.926 182.898 209.508 183.601C211.105 184.29 212.343 185.308 213.222 186.655C214.115 188.003 214.562 189.673 214.562 191.665C214.562 192.617 214.335 193.569 213.881 194.521C213.441 195.459 212.79 196.309 211.925 197.07C211.076 197.817 210.028 198.425 208.783 198.894C207.553 199.348 206.139 199.575 204.542 199.575H200.346V196.433ZM200.346 200.916V197.817H204.542C206.344 197.817 207.904 198.03 209.223 198.455C210.556 198.865 211.654 199.451 212.519 200.212C213.383 200.959 214.02 201.831 214.43 202.827C214.855 203.823 215.067 204.893 215.067 206.035C215.067 207.529 214.789 208.862 214.232 210.034C213.676 211.191 212.892 212.173 211.881 212.979C210.885 213.784 209.713 214.399 208.366 214.824C207.018 215.234 205.561 215.439 203.993 215.439C202.631 215.439 201.305 215.256 200.016 214.89C198.742 214.509 197.592 213.945 196.566 213.198C195.541 212.437 194.728 211.484 194.127 210.342C193.527 209.185 193.227 207.844 193.227 206.321H199.049C199.049 207.2 199.262 207.983 199.687 208.672C200.126 209.36 200.727 209.902 201.488 210.298C202.265 210.679 203.136 210.869 204.103 210.869C205.172 210.869 206.088 210.679 206.85 210.298C207.626 209.902 208.219 209.346 208.629 208.628C209.04 207.896 209.245 207.024 209.245 206.013C209.245 204.812 209.018 203.838 208.563 203.091C208.109 202.344 207.458 201.794 206.608 201.443C205.773 201.091 204.777 200.916 203.62 200.916H200.346ZM237.436 215V219.482H217.418V215H237.436ZM254.354 209.946V181.25H260.199V215H254.926L254.354 209.946ZM239.083 203.398V202.937C239.083 201.121 239.289 199.473 239.699 197.993C240.124 196.499 240.739 195.217 241.544 194.148C242.35 193.079 243.324 192.251 244.467 191.665C245.624 191.079 246.935 190.786 248.4 190.786C249.821 190.786 251.059 191.072 252.113 191.643C253.183 192.214 254.091 193.027 254.838 194.082C255.6 195.137 256.208 196.389 256.662 197.839C257.116 199.275 257.445 200.857 257.65 202.585V203.838C257.445 205.522 257.116 207.068 256.662 208.474C256.208 209.88 255.6 211.111 254.838 212.166C254.091 213.206 253.183 214.011 252.113 214.583C251.044 215.154 249.792 215.439 248.356 215.439C246.906 215.439 245.602 215.139 244.445 214.539C243.302 213.938 242.328 213.096 241.522 212.012C240.731 210.928 240.124 209.653 239.699 208.188C239.289 206.724 239.083 205.127 239.083 203.398ZM244.906 202.937V203.398C244.906 204.424 244.994 205.383 245.17 206.277C245.346 207.17 245.631 207.961 246.027 208.65C246.422 209.324 246.928 209.851 247.543 210.232C248.173 210.613 248.935 210.803 249.828 210.803C250.971 210.803 251.908 210.554 252.641 210.056C253.388 209.543 253.966 208.848 254.376 207.969C254.787 207.075 255.05 206.072 255.167 204.958V201.509C255.109 200.63 254.955 199.817 254.706 199.07C254.472 198.323 254.135 197.678 253.695 197.136C253.271 196.594 252.743 196.169 252.113 195.862C251.483 195.554 250.736 195.4 249.872 195.4C248.979 195.4 248.217 195.598 247.587 195.994C246.957 196.375 246.444 196.909 246.049 197.598C245.653 198.286 245.36 199.084 245.17 199.993C244.994 200.901 244.906 201.882 244.906 202.937ZM271.142 196.301V215H265.341V191.226H270.79L271.142 196.301ZM270.219 202.256H268.505C268.52 200.527 268.754 198.96 269.208 197.554C269.662 196.147 270.299 194.939 271.12 193.928C271.955 192.917 272.943 192.141 274.086 191.599C275.229 191.057 276.503 190.786 277.909 190.786C279.052 190.786 280.084 190.947 281.007 191.27C281.93 191.592 282.721 192.104 283.38 192.808C284.054 193.511 284.567 194.434 284.918 195.576C285.285 196.704 285.468 198.096 285.468 199.751V215H279.623V199.707C279.623 198.623 279.462 197.766 279.14 197.136C278.832 196.506 278.378 196.06 277.777 195.796C277.191 195.532 276.466 195.4 275.602 195.4C274.708 195.4 273.925 195.583 273.251 195.95C272.592 196.301 272.035 196.792 271.581 197.422C271.142 198.052 270.805 198.777 270.57 199.597C270.336 200.417 270.219 201.304 270.219 202.256ZM301.266 215.439C299.464 215.439 297.846 215.146 296.41 214.561C294.975 213.975 293.751 213.162 292.741 212.122C291.745 211.067 290.976 209.844 290.434 208.452C289.906 207.046 289.643 205.537 289.643 203.926V203.047C289.643 201.216 289.906 199.553 290.434 198.059C290.961 196.55 291.708 195.254 292.675 194.17C293.642 193.086 294.799 192.251 296.146 191.665C297.494 191.079 298.981 190.786 300.607 190.786C302.292 190.786 303.778 191.072 305.067 191.643C306.356 192.2 307.433 192.991 308.297 194.016C309.162 195.042 309.813 196.272 310.253 197.708C310.692 199.128 310.912 200.703 310.912 202.432V204.871H292.279V200.872H305.199V200.432C305.17 199.509 304.994 198.667 304.672 197.905C304.35 197.129 303.852 196.514 303.178 196.06C302.504 195.591 301.632 195.356 300.563 195.356C299.699 195.356 298.944 195.547 298.3 195.928C297.67 196.294 297.143 196.821 296.718 197.51C296.308 198.184 296 198.989 295.795 199.927C295.59 200.864 295.487 201.904 295.487 203.047V203.926C295.487 204.922 295.619 205.845 295.883 206.694C296.161 207.544 296.564 208.284 297.091 208.914C297.633 209.529 298.278 210.012 299.025 210.364C299.787 210.701 300.651 210.869 301.618 210.869C302.833 210.869 303.932 210.635 304.914 210.166C305.91 209.683 306.774 208.972 307.506 208.035L310.429 211.067C309.931 211.799 309.257 212.502 308.407 213.176C307.572 213.85 306.562 214.399 305.375 214.824C304.188 215.234 302.819 215.439 301.266 215.439Z" fill="black"/>
</svg>
