<svg width="400" height="400" viewBox="0 0 400 400" fill="none" xmlns="http://www.w3.org/2000/svg">
<path d="M0 0H400V400H0V0Z" fill="#7E4CCB"/>
<path d="M67.2905 151.008V183H61.248V151.008H67.2905ZM80.1885 164.829V169.597H65.7085V164.829H80.1885ZM81.8804 151.008V155.776H65.7085V151.008H81.8804ZM90.7793 164.082V183H84.9785V159.226H90.4717L90.7793 164.082ZM98.0083 159.072L97.9204 164.477C97.5981 164.418 97.2319 164.375 96.8218 164.345C96.4263 164.316 96.0527 164.301 95.7012 164.301C94.8076 164.301 94.0239 164.426 93.3501 164.675C92.6763 164.909 92.1123 165.253 91.6582 165.708C91.2188 166.162 90.8818 166.718 90.6475 167.377C90.4131 168.022 90.2812 168.754 90.252 169.575L88.9995 169.421C88.9995 167.912 89.1533 166.513 89.4609 165.224C89.7686 163.935 90.2153 162.807 90.8013 161.84C91.3872 160.874 92.1196 160.126 92.9985 159.599C93.8921 159.057 94.9175 158.786 96.0747 158.786C96.397 158.786 96.7412 158.815 97.1074 158.874C97.4883 158.918 97.7886 158.984 98.0083 159.072ZM99.5464 171.354V170.893C99.5464 169.15 99.7954 167.546 100.293 166.081C100.792 164.602 101.517 163.32 102.469 162.236C103.421 161.152 104.585 160.31 105.962 159.709C107.339 159.094 108.907 158.786 110.665 158.786C112.452 158.786 114.034 159.094 115.411 159.709C116.802 160.31 117.974 161.152 118.926 162.236C119.878 163.32 120.604 164.602 121.102 166.081C121.6 167.546 121.849 169.15 121.849 170.893V171.354C121.849 173.083 121.6 174.687 121.102 176.167C120.604 177.631 119.878 178.913 118.926 180.012C117.974 181.096 116.81 181.938 115.433 182.539C114.056 183.139 112.481 183.439 110.708 183.439C108.951 183.439 107.376 183.139 105.984 182.539C104.593 181.938 103.421 181.096 102.469 180.012C101.517 178.913 100.792 177.631 100.293 176.167C99.7954 174.687 99.5464 173.083 99.5464 171.354ZM105.347 170.893V171.354C105.347 172.395 105.45 173.369 105.655 174.277C105.86 175.185 106.175 175.983 106.6 176.672C107.024 177.36 107.574 177.902 108.248 178.298C108.936 178.679 109.756 178.869 110.708 178.869C111.646 178.869 112.452 178.679 113.125 178.298C113.799 177.902 114.349 177.36 114.773 176.672C115.213 175.983 115.535 175.185 115.74 174.277C115.945 173.369 116.048 172.395 116.048 171.354V170.893C116.048 169.868 115.945 168.908 115.74 168.015C115.535 167.106 115.213 166.308 114.773 165.62C114.349 164.917 113.792 164.367 113.104 163.972C112.43 163.562 111.617 163.356 110.665 163.356C109.727 163.356 108.921 163.562 108.248 163.972C107.574 164.367 107.024 164.917 106.6 165.62C106.175 166.308 105.86 167.106 105.655 168.015C105.45 168.908 105.347 169.868 105.347 170.893ZM131.758 164.301V183H125.958V159.226H131.407L131.758 164.301ZM130.835 170.256H129.122C129.136 168.527 129.371 166.96 129.825 165.554C130.279 164.147 130.916 162.939 131.736 161.928C132.571 160.917 133.56 160.141 134.703 159.599C135.845 159.057 137.12 158.786 138.526 158.786C139.668 158.786 140.701 158.947 141.624 159.27C142.547 159.592 143.338 160.104 143.997 160.808C144.671 161.511 145.184 162.434 145.535 163.576C145.901 164.704 146.084 166.096 146.084 167.751V183H140.24V167.707C140.24 166.623 140.079 165.766 139.756 165.136C139.449 164.506 138.995 164.06 138.394 163.796C137.808 163.532 137.083 163.4 136.219 163.4C135.325 163.4 134.542 163.583 133.868 163.95C133.208 164.301 132.652 164.792 132.198 165.422C131.758 166.052 131.421 166.777 131.187 167.597C130.953 168.417 130.835 169.304 130.835 170.256ZM162.454 159.226V163.4H148.831V159.226H162.454ZM152.479 153.381H158.301V176.145C158.301 176.848 158.396 177.39 158.587 177.771C158.777 178.151 159.063 178.408 159.444 178.54C159.825 178.671 160.279 178.737 160.806 178.737C161.187 178.737 161.539 178.715 161.861 178.671C162.183 178.627 162.454 178.583 162.674 178.54L162.696 182.89C162.212 183.051 161.663 183.183 161.048 183.286C160.447 183.388 159.766 183.439 159.004 183.439C157.701 183.439 156.558 183.22 155.577 182.78C154.595 182.326 153.833 181.601 153.292 180.605C152.75 179.594 152.479 178.261 152.479 176.606V153.381ZM177.879 167.004V171.596H165.86V167.004H177.879ZM193.523 183.439C191.722 183.439 190.103 183.146 188.667 182.561C187.232 181.975 186.009 181.162 184.998 180.122C184.002 179.067 183.233 177.844 182.691 176.452C182.164 175.046 181.9 173.537 181.9 171.926V171.047C181.9 169.216 182.164 167.553 182.691 166.059C183.218 164.55 183.965 163.254 184.932 162.17C185.899 161.086 187.056 160.251 188.404 159.665C189.751 159.079 191.238 158.786 192.864 158.786C194.549 158.786 196.036 159.072 197.325 159.643C198.614 160.2 199.69 160.991 200.555 162.016C201.419 163.042 202.071 164.272 202.51 165.708C202.95 167.128 203.169 168.703 203.169 170.432V172.871H184.537V168.872H197.457V168.432C197.427 167.509 197.251 166.667 196.929 165.905C196.607 165.129 196.109 164.514 195.435 164.06C194.761 163.591 193.89 163.356 192.82 163.356C191.956 163.356 191.202 163.547 190.557 163.928C189.927 164.294 189.4 164.821 188.975 165.51C188.565 166.184 188.257 166.989 188.052 167.927C187.847 168.864 187.745 169.904 187.745 171.047V171.926C187.745 172.922 187.876 173.845 188.14 174.694C188.418 175.544 188.821 176.284 189.349 176.914C189.891 177.529 190.535 178.012 191.282 178.364C192.044 178.701 192.908 178.869 193.875 178.869C195.091 178.869 196.189 178.635 197.171 178.166C198.167 177.683 199.031 176.972 199.764 176.035L202.686 179.067C202.188 179.799 201.514 180.502 200.665 181.176C199.83 181.85 198.819 182.399 197.632 182.824C196.446 183.234 195.076 183.439 193.523 183.439ZM212.75 164.301V183H206.949V159.226H212.398L212.75 164.301ZM211.827 170.256H210.113C210.127 168.527 210.362 166.96 210.816 165.554C211.27 164.147 211.907 162.939 212.728 161.928C213.562 160.917 214.551 160.141 215.694 159.599C216.836 159.057 218.111 158.786 219.517 158.786C220.66 158.786 221.692 158.947 222.615 159.27C223.538 159.592 224.329 160.104 224.988 160.808C225.662 161.511 226.175 162.434 226.526 163.576C226.893 164.704 227.076 166.096 227.076 167.751V183H221.231V167.707C221.231 166.623 221.07 165.766 220.748 165.136C220.44 164.506 219.986 164.06 219.385 163.796C218.799 163.532 218.074 163.4 217.21 163.4C216.316 163.4 215.533 163.583 214.859 163.95C214.2 164.301 213.643 164.792 213.189 165.422C212.75 166.052 212.413 166.777 212.178 167.597C211.944 168.417 211.827 169.304 211.827 170.256ZM246.456 177.946V149.25H252.3V183H247.027L246.456 177.946ZM231.185 171.398V170.937C231.185 169.121 231.39 167.473 231.8 165.993C232.225 164.499 232.84 163.217 233.646 162.148C234.451 161.079 235.425 160.251 236.568 159.665C237.725 159.079 239.036 158.786 240.501 158.786C241.922 158.786 243.16 159.072 244.214 159.643C245.284 160.214 246.192 161.027 246.939 162.082C247.701 163.137 248.309 164.389 248.763 165.839C249.217 167.275 249.546 168.857 249.751 170.585V171.838C249.546 173.522 249.217 175.068 248.763 176.474C248.309 177.88 247.701 179.111 246.939 180.166C246.192 181.206 245.284 182.011 244.214 182.583C243.145 183.154 241.893 183.439 240.457 183.439C239.007 183.439 237.703 183.139 236.546 182.539C235.403 181.938 234.429 181.096 233.624 180.012C232.833 178.928 232.225 177.653 231.8 176.188C231.39 174.724 231.185 173.127 231.185 171.398ZM237.007 170.937V171.398C237.007 172.424 237.095 173.383 237.271 174.277C237.447 175.17 237.732 175.961 238.128 176.65C238.523 177.324 239.029 177.851 239.644 178.232C240.274 178.613 241.036 178.803 241.929 178.803C243.072 178.803 244.009 178.554 244.742 178.056C245.489 177.543 246.067 176.848 246.478 175.969C246.888 175.075 247.151 174.072 247.269 172.958V169.509C247.21 168.63 247.056 167.817 246.807 167.07C246.573 166.323 246.236 165.678 245.796 165.136C245.372 164.594 244.844 164.169 244.214 163.862C243.584 163.554 242.837 163.4 241.973 163.4C241.08 163.4 240.318 163.598 239.688 163.994C239.058 164.375 238.545 164.909 238.15 165.598C237.754 166.286 237.461 167.084 237.271 167.993C237.095 168.901 237.007 169.882 237.007 170.937ZM281.854 177.946V166.982C281.854 166.176 281.714 165.48 281.436 164.895C281.158 164.309 280.733 163.854 280.162 163.532C279.59 163.21 278.865 163.049 277.986 163.049C277.21 163.049 276.529 163.181 275.943 163.444C275.372 163.708 274.932 164.082 274.625 164.565C274.317 165.034 274.163 165.576 274.163 166.191H268.34C268.34 165.209 268.575 164.279 269.043 163.4C269.512 162.507 270.179 161.716 271.043 161.027C271.922 160.324 272.969 159.775 274.185 159.379C275.416 158.984 276.792 158.786 278.316 158.786C280.118 158.786 281.722 159.094 283.128 159.709C284.549 160.31 285.662 161.218 286.468 162.434C287.288 163.649 287.698 165.18 287.698 167.026V177.397C287.698 178.583 287.771 179.602 287.918 180.451C288.079 181.286 288.313 182.011 288.621 182.626V183H282.71C282.432 182.399 282.22 181.638 282.073 180.715C281.927 179.777 281.854 178.854 281.854 177.946ZM282.667 168.52L282.71 171.97H279.041C278.133 171.97 277.334 172.065 276.646 172.255C275.958 172.431 275.394 172.695 274.954 173.046C274.515 173.383 274.185 173.793 273.965 174.277C273.746 174.746 273.636 175.28 273.636 175.881C273.636 176.467 273.768 176.994 274.031 177.463C274.31 177.932 274.705 178.305 275.218 178.583C275.745 178.847 276.36 178.979 277.063 178.979C278.089 178.979 278.982 178.774 279.744 178.364C280.506 177.939 281.099 177.426 281.524 176.826C281.949 176.225 282.176 175.654 282.205 175.112L283.875 177.617C283.67 178.217 283.362 178.854 282.952 179.528C282.542 180.202 282.015 180.832 281.37 181.418C280.726 182.004 279.949 182.487 279.041 182.868C278.133 183.249 277.078 183.439 275.877 183.439C274.339 183.439 272.962 183.132 271.746 182.517C270.53 181.901 269.571 181.059 268.868 179.99C268.165 178.92 267.813 177.705 267.813 176.342C267.813 175.083 268.047 173.969 268.516 173.002C268.985 172.036 269.681 171.223 270.604 170.563C271.526 169.89 272.669 169.384 274.031 169.047C275.408 168.696 276.983 168.52 278.755 168.52H282.667ZM298.619 164.301V183H292.818V159.226H298.267L298.619 164.301ZM297.696 170.256H295.982C295.997 168.527 296.231 166.96 296.685 165.554C297.139 164.147 297.776 162.939 298.597 161.928C299.432 160.917 300.42 160.141 301.563 159.599C302.706 159.057 303.98 158.786 305.386 158.786C306.529 158.786 307.562 158.947 308.484 159.27C309.407 159.592 310.198 160.104 310.857 160.808C311.531 161.511 312.044 162.434 312.396 163.576C312.762 164.704 312.945 166.096 312.945 167.751V183H307.1V167.707C307.1 166.623 306.939 165.766 306.617 165.136C306.309 164.506 305.855 164.06 305.254 163.796C304.668 163.532 303.943 163.4 303.079 163.4C302.186 163.4 301.402 163.583 300.728 163.95C300.069 164.301 299.512 164.792 299.058 165.422C298.619 166.052 298.282 166.777 298.047 167.597C297.813 168.417 297.696 169.304 297.696 170.256ZM332.325 177.946V149.25H338.169V183H332.896L332.325 177.946ZM317.054 171.398V170.937C317.054 169.121 317.259 167.473 317.669 165.993C318.094 164.499 318.709 163.217 319.515 162.148C320.32 161.079 321.294 160.251 322.437 159.665C323.594 159.079 324.905 158.786 326.37 158.786C327.791 158.786 329.029 159.072 330.083 159.643C331.153 160.214 332.061 161.027 332.808 162.082C333.57 163.137 334.178 164.389 334.632 165.839C335.086 167.275 335.416 168.857 335.621 170.585V171.838C335.416 173.522 335.086 175.068 334.632 176.474C334.178 177.88 333.57 179.111 332.808 180.166C332.061 181.206 331.153 182.011 330.083 182.583C329.014 183.154 327.762 183.439 326.326 183.439C324.876 183.439 323.572 183.139 322.415 182.539C321.272 181.938 320.298 181.096 319.493 180.012C318.702 178.928 318.094 177.653 317.669 176.188C317.259 174.724 317.054 173.127 317.054 171.398ZM322.876 170.937V171.398C322.876 172.424 322.964 173.383 323.14 174.277C323.316 175.17 323.602 175.961 323.997 176.65C324.393 177.324 324.898 177.851 325.513 178.232C326.143 178.613 326.905 178.803 327.798 178.803C328.941 178.803 329.878 178.554 330.611 178.056C331.358 177.543 331.937 176.848 332.347 175.969C332.757 175.075 333.021 174.072 333.138 172.958V169.509C333.079 168.63 332.925 167.817 332.676 167.07C332.442 166.323 332.105 165.678 331.666 165.136C331.241 164.594 330.713 164.169 330.083 163.862C329.454 163.554 328.707 163.4 327.842 163.4C326.949 163.4 326.187 163.598 325.557 163.994C324.927 164.375 324.415 164.909 324.019 165.598C323.624 166.286 323.331 167.084 323.14 167.993C322.964 168.901 322.876 169.882 322.876 170.937ZM108.116 202.25H113.938V230.749L113.367 236H108.116V202.25ZM129.231 223.871V224.333C129.231 226.105 129.034 227.731 128.638 229.21C128.257 230.69 127.679 231.972 126.902 233.056C126.126 234.125 125.159 234.96 124.002 235.561C122.859 236.146 121.519 236.439 119.981 236.439C118.516 236.439 117.242 236.154 116.158 235.583C115.088 235.011 114.188 234.206 113.455 233.166C112.723 232.111 112.137 230.873 111.697 229.452C111.258 228.017 110.928 226.449 110.708 224.75V223.498C110.928 221.784 111.258 220.216 111.697 218.795C112.137 217.375 112.723 216.137 113.455 215.082C114.188 214.027 115.088 213.214 116.158 212.643C117.227 212.072 118.487 211.786 119.937 211.786C121.49 211.786 122.845 212.086 124.002 212.687C125.174 213.273 126.141 214.108 126.902 215.192C127.679 216.261 128.257 217.536 128.638 219.015C129.034 220.48 129.231 222.099 129.231 223.871ZM123.409 224.333V223.871C123.409 222.86 123.328 221.908 123.167 221.015C123.006 220.106 122.742 219.308 122.376 218.62C122.01 217.931 121.512 217.389 120.882 216.994C120.252 216.598 119.461 216.4 118.509 216.4C117.601 216.4 116.824 216.554 116.18 216.862C115.55 217.169 115.022 217.594 114.598 218.136C114.188 218.678 113.865 219.315 113.631 220.048C113.411 220.78 113.265 221.571 113.191 222.421V225.849C113.294 226.977 113.536 227.995 113.917 228.903C114.297 229.796 114.861 230.507 115.608 231.034C116.37 231.562 117.352 231.825 118.553 231.825C119.49 231.825 120.274 231.642 120.904 231.276C121.534 230.895 122.032 230.368 122.398 229.694C122.764 229.005 123.021 228.207 123.167 227.299C123.328 226.391 123.409 225.402 123.409 224.333ZM146.546 230.946V219.982C146.546 219.176 146.407 218.48 146.128 217.895C145.85 217.309 145.425 216.854 144.854 216.532C144.283 216.21 143.558 216.049 142.679 216.049C141.902 216.049 141.221 216.181 140.635 216.444C140.064 216.708 139.625 217.082 139.317 217.565C139.009 218.034 138.855 218.576 138.855 219.191H133.033C133.033 218.209 133.267 217.279 133.736 216.4C134.205 215.507 134.871 214.716 135.735 214.027C136.614 213.324 137.662 212.775 138.877 212.379C140.108 211.984 141.485 211.786 143.008 211.786C144.81 211.786 146.414 212.094 147.82 212.709C149.241 213.31 150.354 214.218 151.16 215.434C151.98 216.649 152.391 218.18 152.391 220.026V230.397C152.391 231.583 152.464 232.602 152.61 233.451C152.771 234.286 153.006 235.011 153.313 235.626V236H147.403C147.125 235.399 146.912 234.638 146.766 233.715C146.619 232.777 146.546 231.854 146.546 230.946ZM147.359 221.52L147.403 224.97H143.733C142.825 224.97 142.027 225.065 141.338 225.255C140.65 225.431 140.086 225.695 139.646 226.046C139.207 226.383 138.877 226.793 138.658 227.277C138.438 227.746 138.328 228.28 138.328 228.881C138.328 229.467 138.46 229.994 138.724 230.463C139.002 230.932 139.397 231.305 139.91 231.583C140.438 231.847 141.053 231.979 141.756 231.979C142.781 231.979 143.675 231.774 144.437 231.364C145.198 230.939 145.792 230.426 146.216 229.826C146.641 229.225 146.868 228.654 146.897 228.112L148.567 230.617C148.362 231.217 148.055 231.854 147.645 232.528C147.234 233.202 146.707 233.832 146.062 234.418C145.418 235.004 144.642 235.487 143.733 235.868C142.825 236.249 141.771 236.439 140.569 236.439C139.031 236.439 137.654 236.132 136.438 235.517C135.223 234.901 134.263 234.059 133.56 232.99C132.857 231.92 132.505 230.705 132.505 229.342C132.505 228.083 132.74 226.969 133.208 226.002C133.677 225.036 134.373 224.223 135.296 223.563C136.219 222.89 137.361 222.384 138.724 222.047C140.101 221.696 141.675 221.52 143.448 221.52H147.359ZM167.376 231.869C168.196 231.869 168.929 231.708 169.573 231.386C170.218 231.063 170.73 230.609 171.111 230.023C171.507 229.438 171.719 228.756 171.749 227.98H177.22C177.19 229.591 176.736 231.034 175.857 232.309C174.979 233.583 173.807 234.594 172.342 235.341C170.892 236.073 169.266 236.439 167.464 236.439C165.633 236.439 164.036 236.132 162.674 235.517C161.312 234.901 160.176 234.044 159.268 232.946C158.375 231.847 157.701 230.573 157.247 229.123C156.807 227.672 156.587 226.12 156.587 224.464V223.761C156.587 222.106 156.807 220.553 157.247 219.103C157.701 217.653 158.375 216.378 159.268 215.28C160.176 214.181 161.312 213.324 162.674 212.709C164.036 212.094 165.625 211.786 167.442 211.786C169.361 211.786 171.045 212.16 172.496 212.907C173.96 213.654 175.103 214.708 175.923 216.071C176.758 217.433 177.19 219.037 177.22 220.883H171.749C171.719 220.033 171.529 219.271 171.177 218.598C170.826 217.924 170.328 217.382 169.683 216.972C169.039 216.562 168.255 216.356 167.332 216.356C166.351 216.356 165.53 216.562 164.871 216.972C164.227 217.382 163.721 217.946 163.355 218.664C163.003 219.367 162.754 220.158 162.608 221.037C162.476 221.901 162.41 222.809 162.41 223.761V224.464C162.41 225.431 162.476 226.354 162.608 227.233C162.754 228.112 163.003 228.903 163.355 229.606C163.721 230.294 164.227 230.844 164.871 231.254C165.53 231.664 166.365 231.869 167.376 231.869ZM186.888 202.228V236H181.087V202.228H186.888ZM201.785 212.226L191.436 223.849L185.833 229.54L183.987 225.036L188.316 219.586L194.776 212.226H201.785ZM195.853 236L188.492 224.926L192.359 221.168L202.576 236H195.853ZM216.419 220.004V224.596H204.4V220.004H216.419ZM232.063 236.439C230.262 236.439 228.643 236.146 227.208 235.561C225.772 234.975 224.549 234.162 223.538 233.122C222.542 232.067 221.773 230.844 221.231 229.452C220.704 228.046 220.44 226.537 220.44 224.926V224.047C220.44 222.216 220.704 220.553 221.231 219.059C221.758 217.55 222.505 216.254 223.472 215.17C224.439 214.086 225.596 213.251 226.944 212.665C228.292 212.079 229.778 211.786 231.404 211.786C233.089 211.786 234.576 212.072 235.865 212.643C237.154 213.2 238.23 213.991 239.095 215.016C239.959 216.042 240.611 217.272 241.05 218.708C241.49 220.128 241.709 221.703 241.709 223.432V225.871H223.077V221.872H235.997V221.432C235.967 220.509 235.792 219.667 235.469 218.905C235.147 218.129 234.649 217.514 233.975 217.06C233.301 216.591 232.43 216.356 231.36 216.356C230.496 216.356 229.742 216.547 229.097 216.928C228.467 217.294 227.94 217.821 227.515 218.51C227.105 219.184 226.797 219.989 226.592 220.927C226.387 221.864 226.285 222.904 226.285 224.047V224.926C226.285 225.922 226.417 226.845 226.68 227.694C226.958 228.544 227.361 229.284 227.889 229.914C228.431 230.529 229.075 231.012 229.822 231.364C230.584 231.701 231.448 231.869 232.415 231.869C233.631 231.869 234.729 231.635 235.711 231.166C236.707 230.683 237.571 229.972 238.304 229.035L241.226 232.067C240.728 232.799 240.054 233.502 239.205 234.176C238.37 234.85 237.359 235.399 236.172 235.824C234.986 236.234 233.616 236.439 232.063 236.439ZM251.29 217.301V236H245.489V212.226H250.938L251.29 217.301ZM250.367 223.256H248.653C248.667 221.527 248.902 219.96 249.356 218.554C249.81 217.147 250.447 215.939 251.268 214.928C252.103 213.917 253.091 213.141 254.234 212.599C255.376 212.057 256.651 211.786 258.057 211.786C259.2 211.786 260.232 211.947 261.155 212.27C262.078 212.592 262.869 213.104 263.528 213.808C264.202 214.511 264.715 215.434 265.066 216.576C265.433 217.704 265.616 219.096 265.616 220.751V236H259.771V220.707C259.771 219.623 259.61 218.766 259.288 218.136C258.98 217.506 258.526 217.06 257.925 216.796C257.339 216.532 256.614 216.4 255.75 216.4C254.856 216.4 254.073 216.583 253.399 216.95C252.74 217.301 252.183 217.792 251.729 218.422C251.29 219.052 250.953 219.777 250.718 220.597C250.484 221.417 250.367 222.304 250.367 223.256ZM284.996 230.946V202.25H290.84V236H285.567L284.996 230.946ZM269.725 224.398V223.937C269.725 222.121 269.93 220.473 270.34 218.993C270.765 217.499 271.38 216.217 272.186 215.148C272.991 214.079 273.965 213.251 275.108 212.665C276.265 212.079 277.576 211.786 279.041 211.786C280.462 211.786 281.7 212.072 282.754 212.643C283.824 213.214 284.732 214.027 285.479 215.082C286.241 216.137 286.849 217.389 287.303 218.839C287.757 220.275 288.086 221.857 288.292 223.585V224.838C288.086 226.522 287.757 228.068 287.303 229.474C286.849 230.88 286.241 232.111 285.479 233.166C284.732 234.206 283.824 235.011 282.754 235.583C281.685 236.154 280.433 236.439 278.997 236.439C277.547 236.439 276.243 236.139 275.086 235.539C273.943 234.938 272.969 234.096 272.164 233.012C271.373 231.928 270.765 230.653 270.34 229.188C269.93 227.724 269.725 226.127 269.725 224.398ZM275.547 223.937V224.398C275.547 225.424 275.635 226.383 275.811 227.277C275.987 228.17 276.272 228.961 276.668 229.65C277.063 230.324 277.569 230.851 278.184 231.232C278.814 231.613 279.576 231.803 280.469 231.803C281.612 231.803 282.549 231.554 283.282 231.056C284.029 230.543 284.607 229.848 285.018 228.969C285.428 228.075 285.691 227.072 285.809 225.958V222.509C285.75 221.63 285.596 220.817 285.347 220.07C285.113 219.323 284.776 218.678 284.336 218.136C283.912 217.594 283.384 217.169 282.754 216.862C282.125 216.554 281.377 216.4 280.513 216.4C279.62 216.4 278.858 216.598 278.228 216.994C277.598 217.375 277.085 217.909 276.69 218.598C276.294 219.286 276.001 220.084 275.811 220.993C275.635 221.901 275.547 222.882 275.547 223.937Z" fill="black"/>
</svg>
