<svg width="400" height="400" viewBox="0 0 400 400" fill="none" xmlns="http://www.w3.org/2000/svg">
<rect width="400" height="400" fill="#7E4CCB"/>
<path d="M109.604 185.74H101.431L101.387 181.477H108.396C109.597 181.477 110.601 181.309 111.406 180.972C112.212 180.635 112.82 180.144 113.23 179.5C113.655 178.855 113.867 178.071 113.867 177.148C113.867 176.123 113.669 175.288 113.274 174.644C112.893 173.999 112.292 173.53 111.472 173.237C110.652 172.93 109.612 172.776 108.352 172.776H103.386V200H97.3438V168.008H108.352C110.168 168.008 111.787 168.184 113.208 168.535C114.644 168.872 115.859 169.399 116.855 170.117C117.852 170.835 118.606 171.736 119.119 172.82C119.646 173.904 119.91 175.193 119.91 176.687C119.91 178.005 119.602 179.221 118.987 180.334C118.386 181.433 117.456 182.327 116.196 183.015C114.951 183.704 113.369 184.099 111.45 184.202L109.604 185.74ZM109.341 200H99.6509L102.178 195.254H109.341C110.542 195.254 111.531 195.056 112.307 194.661C113.098 194.265 113.684 193.723 114.065 193.035C114.46 192.332 114.658 191.526 114.658 190.618C114.658 189.622 114.482 188.757 114.131 188.025C113.794 187.292 113.252 186.729 112.505 186.333C111.772 185.938 110.806 185.74 109.604 185.74H103.32L103.364 181.477H111.362L112.747 183.125C114.592 183.14 116.094 183.506 117.251 184.224C118.423 184.941 119.287 185.864 119.844 186.992C120.4 188.12 120.679 189.336 120.679 190.64C120.679 192.69 120.232 194.412 119.338 195.803C118.459 197.195 117.17 198.242 115.471 198.945C113.787 199.648 111.743 200 109.341 200ZM138.564 194.946V183.982C138.564 183.176 138.425 182.48 138.147 181.895C137.869 181.309 137.444 180.854 136.873 180.532C136.301 180.21 135.576 180.049 134.697 180.049C133.921 180.049 133.24 180.181 132.654 180.444C132.083 180.708 131.643 181.082 131.335 181.565C131.028 182.034 130.874 182.576 130.874 183.191H125.051C125.051 182.209 125.286 181.279 125.754 180.4C126.223 179.507 126.89 178.716 127.754 178.027C128.633 177.324 129.68 176.775 130.896 176.379C132.126 175.984 133.503 175.786 135.027 175.786C136.829 175.786 138.433 176.094 139.839 176.709C141.26 177.31 142.373 178.218 143.179 179.434C143.999 180.649 144.409 182.18 144.409 184.026V194.397C144.409 195.583 144.482 196.602 144.629 197.451C144.79 198.286 145.024 199.011 145.332 199.626V200H139.421C139.143 199.399 138.931 198.638 138.784 197.715C138.638 196.777 138.564 195.854 138.564 194.946ZM139.377 185.52L139.421 188.97H135.752C134.844 188.97 134.045 189.065 133.357 189.255C132.668 189.431 132.104 189.695 131.665 190.046C131.226 190.383 130.896 190.793 130.676 191.277C130.457 191.746 130.347 192.28 130.347 192.881C130.347 193.467 130.479 193.994 130.742 194.463C131.021 194.932 131.416 195.305 131.929 195.583C132.456 195.847 133.071 195.979 133.774 195.979C134.8 195.979 135.693 195.774 136.455 195.364C137.217 194.939 137.81 194.426 138.235 193.826C138.66 193.225 138.887 192.654 138.916 192.112L140.586 194.617C140.381 195.217 140.073 195.854 139.663 196.528C139.253 197.202 138.726 197.832 138.081 198.418C137.437 199.004 136.66 199.487 135.752 199.868C134.844 200.249 133.789 200.439 132.588 200.439C131.05 200.439 129.673 200.132 128.457 199.517C127.241 198.901 126.282 198.059 125.579 196.99C124.875 195.92 124.524 194.705 124.524 193.342C124.524 192.083 124.758 190.969 125.227 190.002C125.696 189.036 126.392 188.223 127.314 187.563C128.237 186.89 129.38 186.384 130.742 186.047C132.119 185.696 133.694 185.52 135.466 185.52H139.377ZM162.712 193.496C162.712 192.998 162.581 192.551 162.317 192.156C162.053 191.76 161.555 191.401 160.823 191.079C160.105 190.742 159.05 190.427 157.659 190.134C156.428 189.871 155.293 189.541 154.253 189.146C153.213 188.75 152.319 188.274 151.572 187.717C150.825 187.146 150.239 186.479 149.814 185.718C149.404 184.941 149.199 184.048 149.199 183.037C149.199 182.056 149.412 181.133 149.836 180.269C150.261 179.39 150.876 178.621 151.682 177.961C152.488 177.288 153.469 176.76 154.626 176.379C155.784 175.984 157.087 175.786 158.538 175.786C160.559 175.786 162.295 176.116 163.745 176.775C165.21 177.434 166.331 178.342 167.107 179.5C167.883 180.642 168.271 181.931 168.271 183.367H162.471C162.471 182.737 162.324 182.166 162.031 181.653C161.753 181.14 161.321 180.73 160.735 180.422C160.149 180.1 159.409 179.939 158.516 179.939C157.71 179.939 157.029 180.071 156.472 180.334C155.93 180.598 155.52 180.942 155.242 181.367C154.963 181.792 154.824 182.261 154.824 182.773C154.824 183.154 154.897 183.499 155.044 183.806C155.205 184.099 155.461 184.37 155.813 184.619C156.165 184.868 156.641 185.095 157.241 185.3C157.856 185.505 158.611 185.703 159.504 185.894C161.277 186.245 162.822 186.714 164.141 187.3C165.474 187.871 166.514 188.633 167.261 189.585C168.008 190.537 168.381 191.753 168.381 193.232C168.381 194.287 168.154 195.254 167.7 196.133C167.246 196.997 166.587 197.751 165.723 198.396C164.858 199.041 163.826 199.546 162.625 199.912C161.423 200.264 160.068 200.439 158.56 200.439C156.377 200.439 154.531 200.051 153.022 199.275C151.514 198.484 150.371 197.488 149.595 196.287C148.818 195.071 148.43 193.811 148.43 192.507H153.989C154.033 193.43 154.282 194.17 154.736 194.727C155.19 195.283 155.762 195.686 156.45 195.935C157.153 196.169 157.893 196.287 158.669 196.287C159.548 196.287 160.288 196.169 160.889 195.935C161.489 195.686 161.943 195.356 162.251 194.946C162.559 194.521 162.712 194.038 162.712 193.496ZM178.599 166.228V200H172.798V166.228H178.599ZM193.496 176.226L183.147 187.849L177.544 193.54L175.698 189.036L180.027 183.586L186.487 176.226H193.496ZM187.563 200L180.203 188.926L184.07 185.168L194.287 200H187.563ZM206.812 200.439C205.01 200.439 203.391 200.146 201.956 199.561C200.52 198.975 199.297 198.162 198.286 197.122C197.29 196.067 196.521 194.844 195.979 193.452C195.452 192.046 195.188 190.537 195.188 188.926V188.047C195.188 186.216 195.452 184.553 195.979 183.059C196.506 181.55 197.253 180.254 198.22 179.17C199.187 178.086 200.344 177.251 201.692 176.665C203.04 176.079 204.526 175.786 206.152 175.786C207.837 175.786 209.324 176.072 210.613 176.643C211.902 177.2 212.979 177.991 213.843 179.016C214.707 180.042 215.359 181.272 215.798 182.708C216.238 184.128 216.458 185.703 216.458 187.432V189.871H197.825V185.872H210.745V185.432C210.715 184.509 210.54 183.667 210.217 182.905C209.895 182.129 209.397 181.514 208.723 181.06C208.049 180.591 207.178 180.356 206.108 180.356C205.244 180.356 204.49 180.547 203.845 180.928C203.215 181.294 202.688 181.821 202.263 182.51C201.853 183.184 201.545 183.989 201.34 184.927C201.135 185.864 201.033 186.904 201.033 188.047V188.926C201.033 189.922 201.165 190.845 201.428 191.694C201.707 192.544 202.109 193.284 202.637 193.914C203.179 194.529 203.823 195.012 204.57 195.364C205.332 195.701 206.196 195.869 207.163 195.869C208.379 195.869 209.478 195.635 210.459 195.166C211.455 194.683 212.319 193.972 213.052 193.035L215.974 196.067C215.476 196.799 214.802 197.502 213.953 198.176C213.118 198.85 212.107 199.399 210.92 199.824C209.734 200.234 208.364 200.439 206.812 200.439ZM231.597 176.226V180.4H217.974V176.226H231.597ZM221.621 170.381H227.444V193.145C227.444 193.848 227.539 194.39 227.729 194.771C227.92 195.151 228.206 195.408 228.586 195.54C228.967 195.671 229.421 195.737 229.949 195.737C230.33 195.737 230.681 195.715 231.003 195.671C231.326 195.627 231.597 195.583 231.816 195.54L231.838 199.89C231.355 200.051 230.806 200.183 230.19 200.286C229.59 200.388 228.909 200.439 228.147 200.439C226.843 200.439 225.701 200.22 224.719 199.78C223.738 199.326 222.976 198.601 222.434 197.605C221.892 196.594 221.621 195.261 221.621 193.606V170.381ZM235.442 166.25H241.265V194.749L240.693 200H235.442V166.25ZM256.558 187.871V188.333C256.558 190.105 256.36 191.731 255.964 193.21C255.583 194.69 255.005 195.972 254.229 197.056C253.452 198.125 252.485 198.96 251.328 199.561C250.186 200.146 248.845 200.439 247.307 200.439C245.842 200.439 244.568 200.154 243.484 199.583C242.415 199.011 241.514 198.206 240.781 197.166C240.049 196.111 239.463 194.873 239.023 193.452C238.584 192.017 238.254 190.449 238.035 188.75V187.498C238.254 185.784 238.584 184.216 239.023 182.795C239.463 181.375 240.049 180.137 240.781 179.082C241.514 178.027 242.415 177.214 243.484 176.643C244.553 176.072 245.813 175.786 247.263 175.786C248.816 175.786 250.171 176.086 251.328 176.687C252.5 177.273 253.467 178.108 254.229 179.192C255.005 180.261 255.583 181.536 255.964 183.015C256.36 184.48 256.558 186.099 256.558 187.871ZM250.735 188.333V187.871C250.735 186.86 250.654 185.908 250.493 185.015C250.332 184.106 250.068 183.308 249.702 182.62C249.336 181.931 248.838 181.389 248.208 180.994C247.578 180.598 246.787 180.4 245.835 180.4C244.927 180.4 244.15 180.554 243.506 180.862C242.876 181.169 242.349 181.594 241.924 182.136C241.514 182.678 241.191 183.315 240.957 184.048C240.737 184.78 240.591 185.571 240.518 186.421V189.849C240.62 190.977 240.862 191.995 241.243 192.903C241.624 193.796 242.188 194.507 242.935 195.034C243.696 195.562 244.678 195.825 245.879 195.825C246.816 195.825 247.6 195.642 248.23 195.276C248.86 194.895 249.358 194.368 249.724 193.694C250.09 193.005 250.347 192.207 250.493 191.299C250.654 190.391 250.735 189.402 250.735 188.333ZM273.872 194.946V183.982C273.872 183.176 273.733 182.48 273.455 181.895C273.176 181.309 272.751 180.854 272.18 180.532C271.609 180.21 270.884 180.049 270.005 180.049C269.229 180.049 268.547 180.181 267.961 180.444C267.39 180.708 266.951 181.082 266.643 181.565C266.335 182.034 266.182 182.576 266.182 183.191H260.359C260.359 182.209 260.593 181.279 261.062 180.4C261.531 179.507 262.197 178.716 263.062 178.027C263.94 177.324 264.988 176.775 266.204 176.379C267.434 175.984 268.811 175.786 270.334 175.786C272.136 175.786 273.74 176.094 275.146 176.709C276.567 177.31 277.681 178.218 278.486 179.434C279.307 180.649 279.717 182.18 279.717 184.026V194.397C279.717 195.583 279.79 196.602 279.937 197.451C280.098 198.286 280.332 199.011 280.64 199.626V200H274.729C274.451 199.399 274.238 198.638 274.092 197.715C273.945 196.777 273.872 195.854 273.872 194.946ZM274.685 185.52L274.729 188.97H271.06C270.151 188.97 269.353 189.065 268.665 189.255C267.976 189.431 267.412 189.695 266.973 190.046C266.533 190.383 266.204 190.793 265.984 191.277C265.764 191.746 265.654 192.28 265.654 192.881C265.654 193.467 265.786 193.994 266.05 194.463C266.328 194.932 266.724 195.305 267.236 195.583C267.764 195.847 268.379 195.979 269.082 195.979C270.107 195.979 271.001 195.774 271.763 195.364C272.524 194.939 273.118 194.426 273.542 193.826C273.967 193.225 274.194 192.654 274.224 192.112L275.894 194.617C275.688 195.217 275.381 195.854 274.971 196.528C274.561 197.202 274.033 197.832 273.389 198.418C272.744 199.004 271.968 199.487 271.06 199.868C270.151 200.249 269.097 200.439 267.896 200.439C266.357 200.439 264.98 200.132 263.765 199.517C262.549 198.901 261.589 198.059 260.886 196.99C260.183 195.92 259.832 194.705 259.832 193.342C259.832 192.083 260.066 190.969 260.535 190.002C261.003 189.036 261.699 188.223 262.622 187.563C263.545 186.89 264.688 186.384 266.05 186.047C267.427 185.696 269.001 185.52 270.774 185.52H274.685ZM291.099 166.25V200H285.276V166.25H291.099ZM302.788 166.25V200H296.965V166.25H302.788ZM146.76 233.796V262.141H140.938V229.226H146.321L146.76 233.796ZM162.031 240.871V241.333C162.031 243.061 161.826 244.665 161.416 246.145C161.021 247.609 160.435 248.891 159.658 249.99C158.882 251.074 157.915 251.923 156.758 252.539C155.615 253.139 154.297 253.439 152.803 253.439C151.338 253.439 150.063 253.161 148.979 252.604C147.896 252.033 146.98 251.228 146.233 250.188C145.486 249.147 144.885 247.939 144.431 246.562C143.992 245.17 143.662 243.654 143.442 242.014V240.542C143.662 238.798 143.992 237.216 144.431 235.795C144.885 234.36 145.486 233.122 146.233 232.082C146.98 231.027 147.888 230.214 148.958 229.643C150.042 229.072 151.309 228.786 152.759 228.786C154.268 228.786 155.593 229.072 156.736 229.643C157.893 230.214 158.867 231.035 159.658 232.104C160.449 233.173 161.042 234.448 161.438 235.927C161.833 237.407 162.031 239.055 162.031 240.871ZM156.208 241.333V240.871C156.208 239.816 156.113 238.842 155.923 237.949C155.732 237.041 155.439 236.25 155.044 235.576C154.648 234.887 154.136 234.353 153.506 233.972C152.876 233.591 152.114 233.4 151.221 233.4C150.327 233.4 149.558 233.547 148.914 233.84C148.269 234.133 147.742 234.55 147.332 235.092C146.921 235.634 146.599 236.279 146.365 237.026C146.145 237.758 145.999 238.571 145.925 239.465V243.112C146.057 244.196 146.313 245.17 146.694 246.035C147.075 246.899 147.632 247.587 148.364 248.1C149.111 248.613 150.078 248.869 151.265 248.869C152.158 248.869 152.92 248.671 153.55 248.276C154.18 247.88 154.692 247.338 155.088 246.65C155.483 245.947 155.769 245.141 155.945 244.233C156.121 243.325 156.208 242.358 156.208 241.333ZM172.424 219.25V253H166.602V219.25H172.424ZM191.057 247.946V236.982C191.057 236.176 190.918 235.48 190.64 234.895C190.361 234.309 189.937 233.854 189.365 233.532C188.794 233.21 188.069 233.049 187.19 233.049C186.414 233.049 185.732 233.181 185.146 233.444C184.575 233.708 184.136 234.082 183.828 234.565C183.521 235.034 183.367 235.576 183.367 236.191H177.544C177.544 235.209 177.778 234.279 178.247 233.4C178.716 232.507 179.382 231.716 180.247 231.027C181.125 230.324 182.173 229.775 183.389 229.379C184.619 228.984 185.996 228.786 187.52 228.786C189.321 228.786 190.925 229.094 192.332 229.709C193.752 230.31 194.866 231.218 195.671 232.434C196.492 233.649 196.902 235.18 196.902 237.026V247.397C196.902 248.583 196.975 249.602 197.122 250.451C197.283 251.286 197.517 252.011 197.825 252.626V253H191.914C191.636 252.399 191.423 251.638 191.277 250.715C191.13 249.777 191.057 248.854 191.057 247.946ZM191.87 238.52L191.914 241.97H188.245C187.336 241.97 186.538 242.065 185.85 242.255C185.161 242.431 184.597 242.695 184.158 243.046C183.718 243.383 183.389 243.793 183.169 244.277C182.949 244.746 182.839 245.28 182.839 245.881C182.839 246.467 182.971 246.994 183.235 247.463C183.513 247.932 183.909 248.305 184.421 248.583C184.949 248.847 185.564 248.979 186.267 248.979C187.292 248.979 188.186 248.774 188.948 248.364C189.709 247.939 190.303 247.426 190.728 246.826C191.152 246.225 191.379 245.654 191.409 245.112L193.079 247.617C192.874 248.217 192.566 248.854 192.156 249.528C191.746 250.202 191.218 250.832 190.574 251.418C189.929 252.004 189.153 252.487 188.245 252.868C187.336 253.249 186.282 253.439 185.081 253.439C183.542 253.439 182.166 253.132 180.95 252.517C179.734 251.901 178.774 251.059 178.071 249.99C177.368 248.92 177.017 247.705 177.017 246.342C177.017 245.083 177.251 243.969 177.72 243.002C178.188 242.036 178.884 241.223 179.807 240.563C180.73 239.89 181.873 239.384 183.235 239.047C184.612 238.696 186.187 238.52 187.959 238.52H191.87ZM208.745 250.363L215.117 229.226H221.335L211.799 256.604C211.58 257.189 211.294 257.827 210.942 258.515C210.605 259.204 210.151 259.855 209.58 260.471C209.009 261.101 208.291 261.613 207.427 262.009C206.577 262.404 205.544 262.602 204.329 262.602C203.801 262.602 203.333 262.565 202.922 262.492C202.512 262.419 202.08 262.324 201.626 262.207V257.856C201.772 257.871 201.941 257.878 202.131 257.878C202.336 257.893 202.512 257.9 202.659 257.9C203.508 257.9 204.211 257.797 204.768 257.592C205.325 257.402 205.771 257.087 206.108 256.647C206.46 256.223 206.753 255.666 206.987 254.978L208.745 250.363ZM205.603 229.226L210.986 246.738L211.931 252.868L207.932 253.593L199.341 229.226H205.603ZM234.519 253.439C232.717 253.439 231.099 253.146 229.663 252.561C228.228 251.975 227.004 251.162 225.994 250.122C224.998 249.067 224.229 247.844 223.687 246.452C223.159 245.046 222.896 243.537 222.896 241.926V241.047C222.896 239.216 223.159 237.553 223.687 236.059C224.214 234.55 224.961 233.254 225.928 232.17C226.895 231.086 228.052 230.251 229.399 229.665C230.747 229.079 232.234 228.786 233.86 228.786C235.544 228.786 237.031 229.072 238.32 229.643C239.609 230.2 240.686 230.991 241.55 232.016C242.415 233.042 243.066 234.272 243.506 235.708C243.945 237.128 244.165 238.703 244.165 240.432V242.871H225.532V238.872H238.452V238.432C238.423 237.509 238.247 236.667 237.925 235.905C237.603 235.129 237.104 234.514 236.431 234.06C235.757 233.591 234.885 233.356 233.816 233.356C232.952 233.356 232.197 233.547 231.553 233.928C230.923 234.294 230.396 234.821 229.971 235.51C229.561 236.184 229.253 236.989 229.048 237.927C228.843 238.864 228.74 239.904 228.74 241.047V241.926C228.74 242.922 228.872 243.845 229.136 244.694C229.414 245.544 229.817 246.284 230.344 246.914C230.886 247.529 231.531 248.012 232.278 248.364C233.04 248.701 233.904 248.869 234.871 248.869C236.086 248.869 237.185 248.635 238.167 248.166C239.163 247.683 240.027 246.972 240.759 246.035L243.682 249.067C243.184 249.799 242.51 250.502 241.66 251.176C240.825 251.85 239.814 252.399 238.628 252.824C237.441 253.234 236.072 253.439 234.519 253.439ZM253.855 234.082V253H248.054V229.226H253.547L253.855 234.082ZM261.084 229.072L260.996 234.477C260.674 234.418 260.308 234.375 259.897 234.345C259.502 234.316 259.128 234.301 258.777 234.301C257.883 234.301 257.1 234.426 256.426 234.675C255.752 234.909 255.188 235.253 254.734 235.708C254.294 236.162 253.958 236.718 253.723 237.377C253.489 238.022 253.357 238.754 253.328 239.575L252.075 239.421C252.075 237.912 252.229 236.513 252.537 235.224C252.844 233.935 253.291 232.807 253.877 231.84C254.463 230.874 255.195 230.126 256.074 229.599C256.968 229.057 257.993 228.786 259.15 228.786C259.473 228.786 259.817 228.815 260.183 228.874C260.564 228.918 260.864 228.984 261.084 229.072Z" fill="black"/>
</svg>
