<svg width="400" height="400" viewBox="0 0 400 400" fill="none" xmlns="http://www.w3.org/2000/svg">
<rect width="400" height="400" fill="#7E4CCB"/>
<path d="M48.0371 193.87L54.4092 168.008H57.8589L58.0786 173.457L51.2671 200H47.6196L48.0371 193.87ZM44.0161 168.008L49.2456 193.782V200H45.2686L38.0176 168.008H44.0161ZM64.6924 193.672L69.834 168.008H75.8545L68.6035 200H64.6265L64.6924 193.672ZM59.5068 168.008L65.8789 193.958L66.2524 200H62.605L55.8154 173.435L56.0791 168.008H59.5068ZM89.2139 200.439C87.4121 200.439 85.7935 200.146 84.3579 199.561C82.9224 198.975 81.6992 198.162 80.6885 197.122C79.6924 196.067 78.9233 194.844 78.3813 193.452C77.854 192.046 77.5903 190.537 77.5903 188.926V188.047C77.5903 186.216 77.854 184.553 78.3813 183.059C78.9087 181.55 79.6558 180.254 80.6226 179.17C81.5894 178.086 82.7466 177.251 84.0942 176.665C85.4419 176.079 86.9287 175.786 88.5547 175.786C90.2393 175.786 91.7261 176.072 93.0151 176.643C94.3042 177.2 95.3809 177.991 96.2451 179.016C97.1094 180.042 97.7612 181.272 98.2007 182.708C98.6401 184.128 98.8599 185.703 98.8599 187.432V189.871H80.2271V185.872H93.147V185.432C93.1177 184.509 92.9419 183.667 92.6196 182.905C92.2974 182.129 91.7993 181.514 91.1255 181.06C90.4517 180.591 89.5801 180.356 88.5107 180.356C87.6465 180.356 86.8921 180.547 86.2476 180.928C85.6177 181.294 85.0903 181.821 84.6655 182.51C84.2554 183.184 83.9478 183.989 83.7427 184.927C83.5376 185.864 83.4351 186.904 83.4351 188.047V188.926C83.4351 189.922 83.5669 190.845 83.8306 191.694C84.1089 192.544 84.5117 193.284 85.0391 193.914C85.5811 194.529 86.2256 195.012 86.9727 195.364C87.7344 195.701 88.5986 195.869 89.5654 195.869C90.7812 195.869 91.8799 195.635 92.8613 195.166C93.8574 194.683 94.7217 193.972 95.4541 193.035L98.3765 196.067C97.8784 196.799 97.2046 197.502 96.355 198.176C95.52 198.85 94.5093 199.399 93.3228 199.824C92.1362 200.234 90.7666 200.439 89.2139 200.439ZM102.727 166.25H108.55V194.749L107.979 200H102.727V166.25ZM123.843 187.871V188.333C123.843 190.105 123.645 191.731 123.25 193.21C122.869 194.69 122.29 195.972 121.514 197.056C120.737 198.125 119.771 198.96 118.613 199.561C117.471 200.146 116.13 200.439 114.592 200.439C113.127 200.439 111.853 200.154 110.769 199.583C109.7 199.011 108.799 198.206 108.066 197.166C107.334 196.111 106.748 194.873 106.309 193.452C105.869 192.017 105.54 190.449 105.32 188.75V187.498C105.54 185.784 105.869 184.216 106.309 182.795C106.748 181.375 107.334 180.137 108.066 179.082C108.799 178.027 109.7 177.214 110.769 176.643C111.838 176.072 113.098 175.786 114.548 175.786C116.101 175.786 117.456 176.086 118.613 176.687C119.785 177.273 120.752 178.108 121.514 179.192C122.29 180.261 122.869 181.536 123.25 183.015C123.645 184.48 123.843 186.099 123.843 187.871ZM118.02 188.333V187.871C118.02 186.86 117.939 185.908 117.778 185.015C117.617 184.106 117.354 183.308 116.987 182.62C116.621 181.931 116.123 181.389 115.493 180.994C114.863 180.598 114.072 180.4 113.12 180.4C112.212 180.4 111.436 180.554 110.791 180.862C110.161 181.169 109.634 181.594 109.209 182.136C108.799 182.678 108.477 183.315 108.242 184.048C108.022 184.78 107.876 185.571 107.803 186.421V189.849C107.905 190.977 108.147 191.995 108.528 192.903C108.909 193.796 109.473 194.507 110.22 195.034C110.981 195.562 111.963 195.825 113.164 195.825C114.102 195.825 114.885 195.642 115.515 195.276C116.145 194.895 116.643 194.368 117.009 193.694C117.375 193.005 117.632 192.207 117.778 191.299C117.939 190.391 118.02 189.402 118.02 188.333ZM142.322 194.946V166.25H148.167V200H142.893L142.322 194.946ZM127.051 188.398V187.937C127.051 186.121 127.256 184.473 127.666 182.993C128.091 181.499 128.706 180.217 129.512 179.148C130.317 178.079 131.292 177.251 132.434 176.665C133.591 176.079 134.902 175.786 136.367 175.786C137.788 175.786 139.026 176.072 140.081 176.643C141.15 177.214 142.058 178.027 142.805 179.082C143.567 180.137 144.175 181.389 144.629 182.839C145.083 184.275 145.413 185.857 145.618 187.585V188.838C145.413 190.522 145.083 192.068 144.629 193.474C144.175 194.88 143.567 196.111 142.805 197.166C142.058 198.206 141.15 199.011 140.081 199.583C139.011 200.154 137.759 200.439 136.323 200.439C134.873 200.439 133.569 200.139 132.412 199.539C131.27 198.938 130.295 198.096 129.49 197.012C128.699 195.928 128.091 194.653 127.666 193.188C127.256 191.724 127.051 190.127 127.051 188.398ZM132.874 187.937V188.398C132.874 189.424 132.961 190.383 133.137 191.277C133.313 192.17 133.599 192.961 133.994 193.65C134.39 194.324 134.895 194.851 135.51 195.232C136.14 195.613 136.902 195.803 137.795 195.803C138.938 195.803 139.875 195.554 140.608 195.056C141.355 194.543 141.934 193.848 142.344 192.969C142.754 192.075 143.018 191.072 143.135 189.958V186.509C143.076 185.63 142.922 184.817 142.673 184.07C142.439 183.323 142.102 182.678 141.663 182.136C141.238 181.594 140.71 181.169 140.081 180.862C139.451 180.554 138.704 180.4 137.839 180.4C136.946 180.4 136.184 180.598 135.554 180.994C134.924 181.375 134.412 181.909 134.016 182.598C133.621 183.286 133.328 184.084 133.137 184.993C132.961 185.901 132.874 186.882 132.874 187.937ZM164.097 200.439C162.295 200.439 160.676 200.146 159.241 199.561C157.805 198.975 156.582 198.162 155.571 197.122C154.575 196.067 153.806 194.844 153.264 193.452C152.737 192.046 152.473 190.537 152.473 188.926V188.047C152.473 186.216 152.737 184.553 153.264 183.059C153.792 181.55 154.539 180.254 155.505 179.17C156.472 178.086 157.629 177.251 158.977 176.665C160.325 176.079 161.812 175.786 163.438 175.786C165.122 175.786 166.609 176.072 167.898 176.643C169.187 177.2 170.264 177.991 171.128 179.016C171.992 180.042 172.644 181.272 173.083 182.708C173.523 184.128 173.743 185.703 173.743 187.432V189.871H155.11V185.872H168.03V185.432C168 184.509 167.825 183.667 167.502 182.905C167.18 182.129 166.682 181.514 166.008 181.06C165.334 180.591 164.463 180.356 163.394 180.356C162.529 180.356 161.775 180.547 161.13 180.928C160.5 181.294 159.973 181.821 159.548 182.51C159.138 183.184 158.831 183.989 158.625 184.927C158.42 185.864 158.318 186.904 158.318 188.047V188.926C158.318 189.922 158.45 190.845 158.713 191.694C158.992 192.544 159.395 193.284 159.922 193.914C160.464 194.529 161.108 195.012 161.855 195.364C162.617 195.701 163.481 195.869 164.448 195.869C165.664 195.869 166.763 195.635 167.744 195.166C168.74 194.683 169.604 193.972 170.337 193.035L173.259 196.067C172.761 196.799 172.087 197.502 171.238 198.176C170.403 198.85 169.392 199.399 168.206 199.824C167.019 200.234 165.649 200.439 164.097 200.439ZM190.706 193.496C190.706 192.998 190.574 192.551 190.31 192.156C190.046 191.76 189.548 191.401 188.816 191.079C188.098 190.742 187.043 190.427 185.652 190.134C184.421 189.871 183.286 189.541 182.246 189.146C181.206 188.75 180.312 188.274 179.565 187.717C178.818 187.146 178.232 186.479 177.808 185.718C177.397 184.941 177.192 184.048 177.192 183.037C177.192 182.056 177.405 181.133 177.83 180.269C178.254 179.39 178.87 178.621 179.675 177.961C180.481 177.288 181.462 176.76 182.62 176.379C183.777 175.984 185.081 175.786 186.531 175.786C188.552 175.786 190.288 176.116 191.738 176.775C193.203 177.434 194.324 178.342 195.1 179.5C195.876 180.642 196.265 181.931 196.265 183.367H190.464C190.464 182.737 190.317 182.166 190.024 181.653C189.746 181.14 189.314 180.73 188.728 180.422C188.142 180.1 187.402 179.939 186.509 179.939C185.703 179.939 185.022 180.071 184.465 180.334C183.923 180.598 183.513 180.942 183.235 181.367C182.957 181.792 182.817 182.261 182.817 182.773C182.817 183.154 182.891 183.499 183.037 183.806C183.198 184.099 183.455 184.37 183.806 184.619C184.158 184.868 184.634 185.095 185.234 185.3C185.85 185.505 186.604 185.703 187.498 185.894C189.27 186.245 190.815 186.714 192.134 187.3C193.467 187.871 194.507 188.633 195.254 189.585C196.001 190.537 196.375 191.753 196.375 193.232C196.375 194.287 196.147 195.254 195.693 196.133C195.239 196.997 194.58 197.751 193.716 198.396C192.852 199.041 191.819 199.546 190.618 199.912C189.417 200.264 188.062 200.439 186.553 200.439C184.37 200.439 182.524 200.051 181.016 199.275C179.507 198.484 178.364 197.488 177.588 196.287C176.812 195.071 176.423 193.811 176.423 192.507H181.982C182.026 193.43 182.275 194.17 182.729 194.727C183.184 195.283 183.755 195.686 184.443 195.935C185.146 196.169 185.886 196.287 186.663 196.287C187.542 196.287 188.281 196.169 188.882 195.935C189.482 195.686 189.937 195.356 190.244 194.946C190.552 194.521 190.706 194.038 190.706 193.496ZM206.943 176.226V200H201.121V176.226H206.943ZM200.725 170.007C200.725 169.143 201.018 168.425 201.604 167.854C202.205 167.283 203.01 166.997 204.021 166.997C205.032 166.997 205.83 167.283 206.416 167.854C207.017 168.425 207.317 169.143 207.317 170.007C207.317 170.857 207.017 171.567 206.416 172.139C205.83 172.71 205.032 172.996 204.021 172.996C203.01 172.996 202.205 172.71 201.604 172.139C201.018 171.567 200.725 170.857 200.725 170.007ZM227.598 176.226H232.871V199.275C232.871 201.428 232.402 203.252 231.465 204.746C230.542 206.255 229.246 207.397 227.576 208.174C225.906 208.965 223.965 209.36 221.753 209.36C220.801 209.36 219.768 209.229 218.655 208.965C217.556 208.701 216.494 208.284 215.469 207.712C214.458 207.156 213.616 206.431 212.942 205.537L215.557 202.109C216.348 203.032 217.241 203.728 218.237 204.197C219.233 204.68 220.31 204.922 221.467 204.922C222.639 204.922 223.635 204.702 224.456 204.263C225.291 203.838 225.928 203.208 226.367 202.373C226.821 201.553 227.048 200.542 227.048 199.341V181.653L227.598 176.226ZM211.536 188.398V187.937C211.536 186.121 211.755 184.473 212.195 182.993C212.634 181.499 213.264 180.217 214.084 179.148C214.919 178.079 215.923 177.251 217.095 176.665C218.281 176.079 219.614 175.786 221.094 175.786C222.661 175.786 223.979 176.072 225.049 176.643C226.133 177.214 227.026 178.027 227.729 179.082C228.447 180.137 229.004 181.389 229.399 182.839C229.81 184.275 230.125 185.857 230.344 187.585V188.838C230.139 190.522 229.81 192.068 229.355 193.474C228.916 194.88 228.33 196.111 227.598 197.166C226.865 198.206 225.957 199.011 224.873 199.583C223.789 200.154 222.515 200.439 221.05 200.439C219.585 200.439 218.267 200.139 217.095 199.539C215.923 198.938 214.919 198.096 214.084 197.012C213.264 195.928 212.634 194.653 212.195 193.188C211.755 191.724 211.536 190.127 211.536 188.398ZM217.336 187.937V188.398C217.336 189.424 217.439 190.383 217.644 191.277C217.849 192.17 218.164 192.961 218.589 193.65C219.014 194.324 219.548 194.851 220.193 195.232C220.837 195.613 221.606 195.803 222.5 195.803C223.701 195.803 224.683 195.554 225.444 195.056C226.221 194.543 226.807 193.848 227.202 192.969C227.612 192.075 227.876 191.072 227.993 189.958V186.509C227.92 185.63 227.759 184.817 227.51 184.07C227.275 183.323 226.946 182.678 226.521 182.136C226.096 181.594 225.554 181.169 224.895 180.862C224.236 180.554 223.452 180.4 222.544 180.4C221.665 180.4 220.896 180.598 220.237 180.994C219.578 181.375 219.036 181.909 218.611 182.598C218.186 183.286 217.864 184.084 217.644 184.993C217.439 185.901 217.336 186.882 217.336 187.937ZM243.792 181.301V200H237.991V176.226H243.44L243.792 181.301ZM242.869 187.256H241.155C241.169 185.527 241.404 183.96 241.858 182.554C242.312 181.147 242.949 179.939 243.77 178.928C244.604 177.917 245.593 177.141 246.736 176.599C247.878 176.057 249.153 175.786 250.559 175.786C251.702 175.786 252.734 175.947 253.657 176.27C254.58 176.592 255.371 177.104 256.03 177.808C256.704 178.511 257.217 179.434 257.568 180.576C257.935 181.704 258.118 183.096 258.118 184.751V200H252.273V184.707C252.273 183.623 252.112 182.766 251.79 182.136C251.482 181.506 251.028 181.06 250.427 180.796C249.841 180.532 249.116 180.4 248.252 180.4C247.358 180.4 246.575 180.583 245.901 180.95C245.242 181.301 244.685 181.792 244.231 182.422C243.792 183.052 243.455 183.777 243.22 184.597C242.986 185.417 242.869 186.304 242.869 187.256ZM273.916 200.439C272.114 200.439 270.496 200.146 269.06 199.561C267.625 198.975 266.401 198.162 265.391 197.122C264.395 196.067 263.625 194.844 263.083 193.452C262.556 192.046 262.292 190.537 262.292 188.926V188.047C262.292 186.216 262.556 184.553 263.083 183.059C263.611 181.55 264.358 180.254 265.325 179.17C266.292 178.086 267.449 177.251 268.796 176.665C270.144 176.079 271.631 175.786 273.257 175.786C274.941 175.786 276.428 176.072 277.717 176.643C279.006 177.2 280.083 177.991 280.947 179.016C281.812 180.042 282.463 181.272 282.903 182.708C283.342 184.128 283.562 185.703 283.562 187.432V189.871H264.929V185.872H277.849V185.432C277.82 184.509 277.644 183.667 277.322 182.905C277 182.129 276.501 181.514 275.828 181.06C275.154 180.591 274.282 180.356 273.213 180.356C272.349 180.356 271.594 180.547 270.95 180.928C270.32 181.294 269.792 181.821 269.368 182.51C268.958 183.184 268.65 183.989 268.445 184.927C268.24 185.864 268.137 186.904 268.137 188.047V188.926C268.137 189.922 268.269 190.845 268.533 191.694C268.811 192.544 269.214 193.284 269.741 193.914C270.283 194.529 270.928 195.012 271.675 195.364C272.437 195.701 273.301 195.869 274.268 195.869C275.483 195.869 276.582 195.635 277.563 195.166C278.56 194.683 279.424 193.972 280.156 193.035L283.079 196.067C282.581 196.799 281.907 197.502 281.057 198.176C280.222 198.85 279.211 199.399 278.025 199.824C276.838 200.234 275.469 200.439 273.916 200.439ZM293.252 181.082V200H287.451V176.226H292.944L293.252 181.082ZM300.481 176.072L300.393 181.477C300.071 181.418 299.705 181.375 299.294 181.345C298.899 181.316 298.525 181.301 298.174 181.301C297.28 181.301 296.497 181.426 295.823 181.675C295.149 181.909 294.585 182.253 294.131 182.708C293.691 183.162 293.354 183.718 293.12 184.377C292.886 185.022 292.754 185.754 292.725 186.575L291.472 186.421C291.472 184.912 291.626 183.513 291.934 182.224C292.241 180.935 292.688 179.807 293.274 178.84C293.86 177.874 294.592 177.126 295.471 176.599C296.365 176.057 297.39 175.786 298.547 175.786C298.87 175.786 299.214 175.815 299.58 175.874C299.961 175.918 300.261 175.984 300.481 176.072ZM313.84 188.354V187.893C313.84 186.15 314.089 184.546 314.587 183.081C315.085 181.602 315.811 180.32 316.763 179.236C317.715 178.152 318.879 177.31 320.256 176.709C321.633 176.094 323.201 175.786 324.958 175.786C326.746 175.786 328.328 176.094 329.705 176.709C331.096 177.31 332.268 178.152 333.22 179.236C334.172 180.32 334.897 181.602 335.396 183.081C335.894 184.546 336.143 186.15 336.143 187.893V188.354C336.143 190.083 335.894 191.687 335.396 193.167C334.897 194.631 334.172 195.913 333.22 197.012C332.268 198.096 331.104 198.938 329.727 199.539C328.35 200.139 326.775 200.439 325.002 200.439C323.245 200.439 321.67 200.139 320.278 199.539C318.887 198.938 317.715 198.096 316.763 197.012C315.811 195.913 315.085 194.631 314.587 193.167C314.089 191.687 313.84 190.083 313.84 188.354ZM319.641 187.893V188.354C319.641 189.395 319.744 190.369 319.949 191.277C320.154 192.185 320.469 192.983 320.894 193.672C321.318 194.36 321.868 194.902 322.542 195.298C323.23 195.679 324.05 195.869 325.002 195.869C325.94 195.869 326.746 195.679 327.419 195.298C328.093 194.902 328.643 194.36 329.067 193.672C329.507 192.983 329.829 192.185 330.034 191.277C330.239 190.369 330.342 189.395 330.342 188.354V187.893C330.342 186.868 330.239 185.908 330.034 185.015C329.829 184.106 329.507 183.308 329.067 182.62C328.643 181.917 328.086 181.367 327.397 180.972C326.724 180.562 325.911 180.356 324.958 180.356C324.021 180.356 323.215 180.562 322.542 180.972C321.868 181.367 321.318 181.917 320.894 182.62C320.469 183.308 320.154 184.106 319.949 185.015C319.744 185.908 319.641 186.868 319.641 187.893ZM346.052 181.301V200H340.251V176.226H345.701L346.052 181.301ZM345.129 187.256H343.416C343.43 185.527 343.665 183.96 344.119 182.554C344.573 181.147 345.21 179.939 346.03 178.928C346.865 177.917 347.854 177.141 348.997 176.599C350.139 176.057 351.414 175.786 352.82 175.786C353.962 175.786 354.995 175.947 355.918 176.27C356.841 176.592 357.632 177.104 358.291 177.808C358.965 178.511 359.478 179.434 359.829 180.576C360.195 181.704 360.378 183.096 360.378 184.751V200H354.534V184.707C354.534 183.623 354.373 182.766 354.05 182.136C353.743 181.506 353.289 181.06 352.688 180.796C352.102 180.532 351.377 180.4 350.513 180.4C349.619 180.4 348.835 180.583 348.162 180.95C347.502 181.301 346.946 181.792 346.492 182.422C346.052 183.052 345.715 183.777 345.481 184.597C345.247 185.417 345.129 186.304 345.129 187.256ZM146.431 221.008V253H140.388V221.008H146.431ZM159.329 234.829V239.597H144.849V234.829H159.329ZM161.021 221.008V225.776H144.849V221.008H161.021ZM170.842 229.226V253H165.02V229.226H170.842ZM164.624 223.007C164.624 222.143 164.917 221.425 165.503 220.854C166.104 220.283 166.909 219.997 167.92 219.997C168.931 219.997 169.729 220.283 170.315 220.854C170.916 221.425 171.216 222.143 171.216 223.007C171.216 223.857 170.916 224.567 170.315 225.139C169.729 225.71 168.931 225.996 167.92 225.996C166.909 225.996 166.104 225.71 165.503 225.139C164.917 224.567 164.624 223.857 164.624 223.007ZM191.497 229.226H196.77V252.275C196.77 254.428 196.301 256.252 195.364 257.746C194.441 259.255 193.145 260.397 191.475 261.174C189.805 261.965 187.864 262.36 185.652 262.36C184.7 262.36 183.667 262.229 182.554 261.965C181.455 261.701 180.393 261.284 179.368 260.712C178.357 260.156 177.515 259.431 176.841 258.537L179.456 255.109C180.247 256.032 181.14 256.728 182.136 257.197C183.132 257.68 184.209 257.922 185.366 257.922C186.538 257.922 187.534 257.702 188.354 257.263C189.189 256.838 189.827 256.208 190.266 255.373C190.72 254.553 190.947 253.542 190.947 252.341V234.653L191.497 229.226ZM175.435 241.398V240.937C175.435 239.121 175.654 237.473 176.094 235.993C176.533 234.499 177.163 233.217 177.983 232.148C178.818 231.079 179.822 230.251 180.994 229.665C182.18 229.079 183.513 228.786 184.993 228.786C186.56 228.786 187.878 229.072 188.948 229.643C190.032 230.214 190.925 231.027 191.628 232.082C192.346 233.137 192.903 234.389 193.298 235.839C193.708 237.275 194.023 238.857 194.243 240.585V241.838C194.038 243.522 193.708 245.068 193.254 246.474C192.815 247.88 192.229 249.111 191.497 250.166C190.764 251.206 189.856 252.011 188.772 252.583C187.688 253.154 186.414 253.439 184.949 253.439C183.484 253.439 182.166 253.139 180.994 252.539C179.822 251.938 178.818 251.096 177.983 250.012C177.163 248.928 176.533 247.653 176.094 246.188C175.654 244.724 175.435 243.127 175.435 241.398ZM181.235 240.937V241.398C181.235 242.424 181.338 243.383 181.543 244.277C181.748 245.17 182.063 245.961 182.488 246.65C182.913 247.324 183.447 247.851 184.092 248.232C184.736 248.613 185.505 248.803 186.399 248.803C187.6 248.803 188.582 248.554 189.343 248.056C190.12 247.543 190.706 246.848 191.101 245.969C191.511 245.075 191.775 244.072 191.892 242.958V239.509C191.819 238.63 191.658 237.817 191.409 237.07C191.174 236.323 190.845 235.678 190.42 235.136C189.995 234.594 189.453 234.169 188.794 233.862C188.135 233.554 187.351 233.4 186.443 233.4C185.564 233.4 184.795 233.598 184.136 233.994C183.477 234.375 182.935 234.909 182.51 235.598C182.085 236.286 181.763 237.084 181.543 237.993C181.338 238.901 181.235 239.882 181.235 240.937ZM207.778 234.104V253H201.978V229.226H207.449L207.778 234.104ZM206.921 240.256H205.142C205.142 238.601 205.339 237.077 205.735 235.686C206.145 234.294 206.746 233.085 207.537 232.06C208.328 231.02 209.302 230.214 210.459 229.643C211.631 229.072 212.986 228.786 214.524 228.786C215.593 228.786 216.575 228.947 217.468 229.27C218.362 229.577 219.131 230.068 219.775 230.742C220.435 231.401 220.94 232.265 221.292 233.334C221.643 234.389 221.819 235.656 221.819 237.136V253H216.018V237.729C216.018 236.616 215.857 235.744 215.535 235.114C215.227 234.484 214.78 234.045 214.194 233.796C213.608 233.532 212.905 233.4 212.085 233.4C211.177 233.4 210.393 233.583 209.734 233.95C209.089 234.301 208.555 234.792 208.13 235.422C207.72 236.052 207.412 236.777 207.207 237.597C207.017 238.417 206.921 239.304 206.921 240.256ZM221.379 239.179L218.984 239.619C218.999 238.125 219.204 236.726 219.6 235.422C219.995 234.104 220.574 232.954 221.335 231.972C222.112 230.976 223.071 230.2 224.214 229.643C225.371 229.072 226.704 228.786 228.213 228.786C229.385 228.786 230.439 228.955 231.377 229.292C232.329 229.614 233.142 230.134 233.816 230.852C234.49 231.555 235.002 232.47 235.354 233.598C235.72 234.726 235.903 236.103 235.903 237.729V253H230.059V237.707C230.059 236.55 229.897 235.664 229.575 235.048C229.268 234.433 228.821 234.008 228.235 233.774C227.649 233.525 226.96 233.4 226.169 233.4C225.364 233.4 224.661 233.554 224.06 233.862C223.474 234.155 222.976 234.565 222.566 235.092C222.17 235.62 221.87 236.235 221.665 236.938C221.475 237.626 221.379 238.374 221.379 239.179ZM254.207 247.946V236.982C254.207 236.176 254.067 235.48 253.789 234.895C253.511 234.309 253.086 233.854 252.515 233.532C251.943 233.21 251.218 233.049 250.339 233.049C249.563 233.049 248.882 233.181 248.296 233.444C247.725 233.708 247.285 234.082 246.978 234.565C246.67 235.034 246.516 235.576 246.516 236.191H240.693C240.693 235.209 240.928 234.279 241.396 233.4C241.865 232.507 242.532 231.716 243.396 231.027C244.275 230.324 245.322 229.775 246.538 229.379C247.769 228.984 249.146 228.786 250.669 228.786C252.471 228.786 254.075 229.094 255.481 229.709C256.902 230.31 258.015 231.218 258.821 232.434C259.641 233.649 260.051 235.18 260.051 237.026V247.397C260.051 248.583 260.125 249.602 260.271 250.451C260.432 251.286 260.667 252.011 260.974 252.626V253H255.063C254.785 252.399 254.573 251.638 254.426 250.715C254.28 249.777 254.207 248.854 254.207 247.946ZM255.02 238.52L255.063 241.97H251.394C250.486 241.97 249.688 242.065 248.999 242.255C248.311 242.431 247.747 242.695 247.307 243.046C246.868 243.383 246.538 243.793 246.318 244.277C246.099 244.746 245.989 245.28 245.989 245.881C245.989 246.467 246.121 246.994 246.384 247.463C246.663 247.932 247.058 248.305 247.571 248.583C248.098 248.847 248.713 248.979 249.417 248.979C250.442 248.979 251.335 248.774 252.097 248.364C252.859 247.939 253.452 247.426 253.877 246.826C254.302 246.225 254.529 245.654 254.558 245.112L256.228 247.617C256.023 248.217 255.715 248.854 255.305 249.528C254.895 250.202 254.368 250.832 253.723 251.418C253.079 252.004 252.302 252.487 251.394 252.868C250.486 253.249 249.431 253.439 248.23 253.439C246.692 253.439 245.315 253.132 244.099 252.517C242.883 251.901 241.924 251.059 241.221 249.99C240.518 248.92 240.166 247.705 240.166 246.342C240.166 245.083 240.4 243.969 240.869 243.002C241.338 242.036 242.034 241.223 242.957 240.563C243.879 239.89 245.022 239.384 246.384 239.047C247.761 238.696 249.336 238.52 251.108 238.52H255.02Z" fill="black"/>
</svg>
