<svg width="400" height="400" viewBox="0 0 400 400" fill="none" xmlns="http://www.w3.org/2000/svg">
<rect width="400" height="400" fill="#7E4CCB"/>
<path d="M106.929 153.008V185H100.887V153.008H106.929ZM133.978 180.869C134.798 180.869 135.53 180.708 136.175 180.386C136.819 180.063 137.332 179.609 137.713 179.023C138.108 178.438 138.321 177.756 138.35 176.98H143.821C143.792 178.591 143.338 180.034 142.459 181.309C141.58 182.583 140.408 183.594 138.943 184.341C137.493 185.073 135.867 185.439 134.065 185.439C132.234 185.439 130.638 185.132 129.275 184.517C127.913 183.901 126.778 183.044 125.87 181.946C124.976 180.847 124.302 179.573 123.848 178.123C123.409 176.672 123.189 175.12 123.189 173.464V172.761C123.189 171.106 123.409 169.553 123.848 168.103C124.302 166.653 124.976 165.378 125.87 164.28C126.778 163.181 127.913 162.324 129.275 161.709C130.638 161.094 132.227 160.786 134.043 160.786C135.962 160.786 137.647 161.16 139.097 161.907C140.562 162.654 141.705 163.708 142.525 165.071C143.36 166.433 143.792 168.037 143.821 169.883H138.35C138.321 169.033 138.13 168.271 137.779 167.598C137.427 166.924 136.929 166.382 136.285 165.972C135.64 165.562 134.856 165.356 133.934 165.356C132.952 165.356 132.132 165.562 131.473 165.972C130.828 166.382 130.323 166.946 129.957 167.664C129.605 168.367 129.356 169.158 129.209 170.037C129.078 170.901 129.012 171.809 129.012 172.761V173.464C129.012 174.431 129.078 175.354 129.209 176.233C129.356 177.112 129.605 177.903 129.957 178.606C130.323 179.294 130.828 179.844 131.473 180.254C132.132 180.664 132.967 180.869 133.978 180.869ZM160.784 179.946V168.982C160.784 168.176 160.645 167.48 160.367 166.895C160.088 166.309 159.664 165.854 159.092 165.532C158.521 165.21 157.796 165.049 156.917 165.049C156.141 165.049 155.459 165.181 154.874 165.444C154.302 165.708 153.863 166.082 153.555 166.565C153.248 167.034 153.094 167.576 153.094 168.191H147.271C147.271 167.209 147.505 166.279 147.974 165.4C148.443 164.507 149.109 163.716 149.974 163.027C150.853 162.324 151.9 161.775 153.116 161.379C154.346 160.984 155.723 160.786 157.247 160.786C159.048 160.786 160.652 161.094 162.059 161.709C163.479 162.31 164.593 163.218 165.398 164.434C166.219 165.649 166.629 167.18 166.629 169.026V179.397C166.629 180.583 166.702 181.602 166.849 182.451C167.01 183.286 167.244 184.011 167.552 184.626V185H161.641C161.363 184.399 161.15 183.638 161.004 182.715C160.857 181.777 160.784 180.854 160.784 179.946ZM161.597 170.52L161.641 173.97H157.972C157.063 173.97 156.265 174.065 155.577 174.255C154.888 174.431 154.324 174.695 153.885 175.046C153.445 175.383 153.116 175.793 152.896 176.277C152.676 176.746 152.566 177.28 152.566 177.881C152.566 178.467 152.698 178.994 152.962 179.463C153.24 179.932 153.636 180.305 154.148 180.583C154.676 180.847 155.291 180.979 155.994 180.979C157.02 180.979 157.913 180.774 158.675 180.364C159.437 179.939 160.03 179.426 160.455 178.826C160.879 178.225 161.106 177.654 161.136 177.112L162.806 179.617C162.601 180.217 162.293 180.854 161.883 181.528C161.473 182.202 160.945 182.832 160.301 183.418C159.656 184.004 158.88 184.487 157.972 184.868C157.063 185.249 156.009 185.439 154.808 185.439C153.27 185.439 151.893 185.132 150.677 184.517C149.461 183.901 148.501 183.059 147.798 181.99C147.095 180.92 146.744 179.705 146.744 178.342C146.744 177.083 146.978 175.969 147.447 175.002C147.916 174.036 148.611 173.223 149.534 172.563C150.457 171.89 151.6 171.384 152.962 171.047C154.339 170.696 155.914 170.52 157.686 170.52H161.597ZM177.549 166.301V185H171.749V161.226H177.198L177.549 166.301ZM176.626 172.256H174.913C174.927 170.527 175.162 168.96 175.616 167.554C176.07 166.147 176.707 164.939 177.527 163.928C178.362 162.917 179.351 162.141 180.494 161.599C181.636 161.057 182.911 160.786 184.317 160.786C185.459 160.786 186.492 160.947 187.415 161.27C188.338 161.592 189.129 162.104 189.788 162.808C190.462 163.511 190.975 164.434 191.326 165.576C191.692 166.704 191.875 168.096 191.875 169.751V185H186.031V169.707C186.031 168.623 185.87 167.766 185.547 167.136C185.24 166.506 184.786 166.06 184.185 165.796C183.599 165.532 182.874 165.4 182.01 165.4C181.116 165.4 180.333 165.583 179.659 165.95C179 166.301 178.443 166.792 177.989 167.422C177.549 168.052 177.212 168.777 176.978 169.597C176.744 170.417 176.626 171.304 176.626 172.256ZM222.352 179.353V161.226H228.196V185H222.703L222.352 179.353ZM223.099 174.431L224.9 174.387C224.9 175.984 224.725 177.456 224.373 178.804C224.021 180.151 223.472 181.323 222.725 182.319C221.993 183.301 221.062 184.07 219.935 184.626C218.807 185.168 217.474 185.439 215.936 185.439C214.764 185.439 213.694 185.278 212.728 184.956C211.761 184.619 210.926 184.099 210.223 183.396C209.534 182.678 209 181.763 208.619 180.649C208.238 179.521 208.047 178.167 208.047 176.584V161.226H213.848V176.628C213.848 177.419 213.936 178.079 214.112 178.606C214.302 179.133 214.559 179.565 214.881 179.902C215.218 180.225 215.606 180.459 216.045 180.605C216.5 180.737 216.983 180.803 217.496 180.803C218.902 180.803 220.008 180.525 220.813 179.968C221.634 179.397 222.22 178.635 222.571 177.683C222.923 176.716 223.099 175.632 223.099 174.431ZM246.412 178.496C246.412 177.998 246.28 177.551 246.016 177.156C245.752 176.76 245.254 176.401 244.522 176.079C243.804 175.742 242.75 175.427 241.358 175.134C240.127 174.871 238.992 174.541 237.952 174.146C236.912 173.75 236.019 173.274 235.271 172.717C234.524 172.146 233.938 171.479 233.514 170.718C233.104 169.941 232.898 169.048 232.898 168.037C232.898 167.056 233.111 166.133 233.536 165.269C233.96 164.39 234.576 163.621 235.381 162.961C236.187 162.288 237.168 161.76 238.326 161.379C239.483 160.984 240.787 160.786 242.237 160.786C244.258 160.786 245.994 161.116 247.444 161.775C248.909 162.434 250.03 163.342 250.806 164.5C251.583 165.642 251.971 166.931 251.971 168.367H246.17C246.17 167.737 246.023 167.166 245.73 166.653C245.452 166.14 245.02 165.73 244.434 165.422C243.848 165.1 243.108 164.939 242.215 164.939C241.409 164.939 240.728 165.071 240.171 165.334C239.629 165.598 239.219 165.942 238.941 166.367C238.663 166.792 238.523 167.261 238.523 167.773C238.523 168.154 238.597 168.499 238.743 168.806C238.904 169.099 239.161 169.37 239.512 169.619C239.864 169.868 240.34 170.095 240.94 170.3C241.556 170.505 242.31 170.703 243.204 170.894C244.976 171.245 246.521 171.714 247.84 172.3C249.173 172.871 250.213 173.633 250.96 174.585C251.707 175.537 252.081 176.753 252.081 178.232C252.081 179.287 251.854 180.254 251.399 181.133C250.945 181.997 250.286 182.751 249.422 183.396C248.558 184.041 247.525 184.546 246.324 184.912C245.123 185.264 243.768 185.439 242.259 185.439C240.076 185.439 238.23 185.051 236.722 184.275C235.213 183.484 234.07 182.488 233.294 181.287C232.518 180.071 232.129 178.811 232.129 177.507H237.688C237.732 178.43 237.981 179.17 238.436 179.727C238.89 180.283 239.461 180.686 240.149 180.935C240.853 181.169 241.592 181.287 242.369 181.287C243.248 181.287 243.987 181.169 244.588 180.935C245.188 180.686 245.643 180.356 245.95 179.946C246.258 179.521 246.412 179.038 246.412 178.496ZM267.176 185.439C265.374 185.439 263.755 185.146 262.32 184.561C260.884 183.975 259.661 183.162 258.65 182.122C257.654 181.067 256.885 179.844 256.343 178.452C255.816 177.046 255.552 175.537 255.552 173.926V173.047C255.552 171.216 255.816 169.553 256.343 168.059C256.871 166.55 257.618 165.254 258.584 164.17C259.551 163.086 260.708 162.251 262.056 161.665C263.404 161.079 264.891 160.786 266.517 160.786C268.201 160.786 269.688 161.072 270.977 161.643C272.266 162.2 273.343 162.991 274.207 164.016C275.071 165.042 275.723 166.272 276.163 167.708C276.602 169.128 276.822 170.703 276.822 172.432V174.871H258.189V170.872H271.109V170.432C271.08 169.509 270.904 168.667 270.582 167.905C270.259 167.129 269.761 166.514 269.087 166.06C268.414 165.591 267.542 165.356 266.473 165.356C265.608 165.356 264.854 165.547 264.209 165.928C263.58 166.294 263.052 166.821 262.627 167.51C262.217 168.184 261.91 168.989 261.705 169.927C261.5 170.864 261.397 171.904 261.397 173.047V173.926C261.397 174.922 261.529 175.845 261.792 176.694C262.071 177.544 262.474 178.284 263.001 178.914C263.543 179.529 264.188 180.012 264.935 180.364C265.696 180.701 266.561 180.869 267.527 180.869C268.743 180.869 269.842 180.635 270.823 180.166C271.819 179.683 272.684 178.972 273.416 178.035L276.338 181.067C275.84 181.799 275.167 182.502 274.317 183.176C273.482 183.85 272.471 184.399 271.285 184.824C270.098 185.234 268.729 185.439 267.176 185.439ZM292.049 182.166C292.049 181.287 292.349 180.547 292.95 179.946C293.55 179.346 294.363 179.045 295.389 179.045C296.414 179.045 297.227 179.346 297.828 179.946C298.428 180.547 298.729 181.287 298.729 182.166C298.729 183.03 298.428 183.762 297.828 184.363C297.227 184.949 296.414 185.242 295.389 185.242C294.363 185.242 293.55 184.949 292.95 184.363C292.349 183.762 292.049 183.03 292.049 182.166ZM292.071 163.73C292.071 162.852 292.371 162.112 292.972 161.511C293.572 160.911 294.385 160.61 295.411 160.61C296.436 160.61 297.249 160.911 297.85 161.511C298.45 162.112 298.75 162.852 298.75 163.73C298.75 164.595 298.45 165.327 297.85 165.928C297.249 166.514 296.436 166.807 295.411 166.807C294.385 166.807 293.572 166.514 292.972 165.928C292.371 165.327 292.071 164.595 292.071 163.73ZM72.2124 219.213V223.959H55.3813V219.213H72.2124ZM57.0293 206.008V238H50.9868V206.008H57.0293ZM76.6948 206.008V238H70.6523V206.008H76.6948ZM95.9209 206.008V238H89.9004V206.008H95.9209ZM105.853 206.008V210.776H80.0786V206.008H105.853ZM112.51 206.008H117.74L126.485 230.09L135.208 206.008H140.459L128.572 238H124.375L112.51 206.008ZM109.874 206.008H114.993L115.916 228.134V238H109.874V206.008ZM137.955 206.008H143.096V238H137.054V228.134L137.955 206.008ZM169.551 233.254V238H153.467V233.254H169.551ZM155.291 206.008V238H149.249V206.008H155.291ZM178.626 232.771L178.582 236.792C178.582 238.359 178.194 239.948 177.417 241.56C176.641 243.171 175.638 244.504 174.407 245.559L171.331 243.867C171.727 243.208 172.093 242.541 172.43 241.867C172.781 241.193 173.06 240.461 173.265 239.67C173.484 238.894 173.594 238.022 173.594 237.055V232.771H178.626ZM214.112 227.475H220.154C219.993 229.614 219.4 231.511 218.375 233.166C217.349 234.807 215.921 236.096 214.09 237.033C212.259 237.971 210.04 238.439 207.432 238.439C205.425 238.439 203.616 238.088 202.005 237.385C200.408 236.667 199.039 235.649 197.896 234.331C196.768 232.998 195.904 231.401 195.303 229.541C194.703 227.666 194.402 225.563 194.402 223.234V220.795C194.402 218.466 194.71 216.364 195.325 214.489C195.94 212.614 196.819 211.018 197.962 209.699C199.119 208.366 200.503 207.341 202.115 206.623C203.741 205.905 205.557 205.546 207.564 205.546C210.171 205.546 212.376 206.03 214.178 206.997C215.979 207.949 217.378 209.26 218.375 210.93C219.371 212.6 219.971 214.519 220.176 216.687H214.134C214.017 215.339 213.724 214.196 213.255 213.259C212.801 212.321 212.112 211.611 211.189 211.127C210.281 210.629 209.073 210.38 207.564 210.38C206.392 210.38 205.359 210.6 204.466 211.04C203.587 211.479 202.854 212.138 202.269 213.017C201.683 213.881 201.243 214.965 200.95 216.269C200.657 217.558 200.511 219.052 200.511 220.751V223.234C200.511 224.86 200.643 226.318 200.906 227.607C201.17 228.896 201.58 229.987 202.137 230.881C202.693 231.774 203.411 232.456 204.29 232.924C205.169 233.393 206.216 233.627 207.432 233.627C208.912 233.627 210.113 233.393 211.036 232.924C211.973 232.456 212.684 231.767 213.167 230.859C213.665 229.951 213.98 228.823 214.112 227.475ZM241.578 229.694C241.578 229.079 241.482 228.53 241.292 228.046C241.116 227.548 240.787 227.102 240.303 226.706C239.834 226.296 239.168 225.9 238.304 225.52C237.454 225.124 236.355 224.714 235.008 224.289C233.514 223.82 232.122 223.293 230.833 222.707C229.544 222.121 228.409 221.44 227.427 220.664C226.46 219.887 225.706 218.994 225.164 217.983C224.622 216.958 224.351 215.771 224.351 214.423C224.351 213.105 224.629 211.904 225.186 210.82C225.757 209.736 226.563 208.806 227.603 208.029C228.643 207.238 229.866 206.63 231.272 206.206C232.693 205.781 234.261 205.568 235.975 205.568C238.348 205.568 240.398 206 242.127 206.865C243.87 207.729 245.218 208.901 246.17 210.38C247.122 211.86 247.598 213.522 247.598 215.368H241.578C241.578 214.372 241.365 213.493 240.94 212.731C240.53 211.97 239.9 211.369 239.051 210.93C238.216 210.49 237.161 210.271 235.887 210.271C234.656 210.271 233.631 210.454 232.811 210.82C232.005 211.186 231.397 211.684 230.987 212.314C230.591 212.944 230.394 213.647 230.394 214.423C230.394 215.009 230.533 215.537 230.811 216.005C231.089 216.459 231.507 216.892 232.063 217.302C232.62 217.697 233.309 218.071 234.129 218.422C234.964 218.759 235.931 219.096 237.029 219.433C238.787 219.96 240.325 220.546 241.644 221.191C242.977 221.835 244.083 222.568 244.961 223.388C245.855 224.208 246.521 225.131 246.961 226.157C247.415 227.182 247.642 228.347 247.642 229.65C247.642 231.027 247.371 232.258 246.829 233.342C246.287 234.426 245.511 235.349 244.5 236.11C243.489 236.872 242.273 237.451 240.853 237.846C239.446 238.242 237.872 238.439 236.128 238.439C234.576 238.439 233.038 238.234 231.514 237.824C230.005 237.399 228.636 236.77 227.405 235.935C226.175 235.085 225.193 234.016 224.461 232.727C223.729 231.423 223.362 229.899 223.362 228.156H229.427C229.427 229.167 229.588 230.031 229.91 230.749C230.247 231.452 230.716 232.031 231.316 232.485C231.932 232.924 232.649 233.247 233.47 233.452C234.29 233.657 235.176 233.759 236.128 233.759C237.359 233.759 238.37 233.591 239.161 233.254C239.966 232.902 240.567 232.419 240.962 231.804C241.373 231.188 241.578 230.485 241.578 229.694ZM269.043 229.694C269.043 229.079 268.948 228.53 268.758 228.046C268.582 227.548 268.252 227.102 267.769 226.706C267.3 226.296 266.634 225.9 265.77 225.52C264.92 225.124 263.821 224.714 262.474 224.289C260.979 223.82 259.588 223.293 258.299 222.707C257.01 222.121 255.875 221.44 254.893 220.664C253.926 219.887 253.172 218.994 252.63 217.983C252.088 216.958 251.817 215.771 251.817 214.423C251.817 213.105 252.095 211.904 252.652 210.82C253.223 209.736 254.029 208.806 255.069 208.029C256.109 207.238 257.332 206.63 258.738 206.206C260.159 205.781 261.727 205.568 263.44 205.568C265.813 205.568 267.864 206 269.593 206.865C271.336 207.729 272.684 208.901 273.636 210.38C274.588 211.86 275.064 213.522 275.064 215.368H269.043C269.043 214.372 268.831 213.493 268.406 212.731C267.996 211.97 267.366 211.369 266.517 210.93C265.682 210.49 264.627 210.271 263.353 210.271C262.122 210.271 261.097 210.454 260.276 210.82C259.471 211.186 258.863 211.684 258.453 212.314C258.057 212.944 257.859 213.647 257.859 214.423C257.859 215.009 257.999 215.537 258.277 216.005C258.555 216.459 258.973 216.892 259.529 217.302C260.086 217.697 260.774 218.071 261.595 218.422C262.43 218.759 263.396 219.096 264.495 219.433C266.253 219.96 267.791 220.546 269.109 221.191C270.442 221.835 271.548 222.568 272.427 223.388C273.321 224.208 273.987 225.131 274.427 226.157C274.881 227.182 275.108 228.347 275.108 229.65C275.108 231.027 274.837 232.258 274.295 233.342C273.753 234.426 272.977 235.349 271.966 236.11C270.955 236.872 269.739 237.451 268.318 237.846C266.912 238.242 265.337 238.439 263.594 238.439C262.042 238.439 260.503 238.234 258.98 237.824C257.471 237.399 256.102 236.77 254.871 235.935C253.641 235.085 252.659 234.016 251.927 232.727C251.194 231.423 250.828 229.899 250.828 228.156H256.893C256.893 229.167 257.054 230.031 257.376 230.749C257.713 231.452 258.182 232.031 258.782 232.485C259.397 232.924 260.115 233.247 260.936 233.452C261.756 233.657 262.642 233.759 263.594 233.759C264.825 233.759 265.835 233.591 266.626 233.254C267.432 232.902 268.033 232.419 268.428 231.804C268.838 231.188 269.043 230.485 269.043 229.694ZM284.798 232.771L284.754 236.792C284.754 238.359 284.366 239.948 283.589 241.56C282.813 243.171 281.81 244.504 280.579 245.559L277.503 243.867C277.898 243.208 278.265 242.541 278.602 241.867C278.953 241.193 279.231 240.461 279.437 239.67C279.656 238.894 279.766 238.022 279.766 237.055V232.771H284.798ZM314.615 228.288V206.008H320.657V228.288C320.657 230.412 320.196 232.236 319.273 233.759C318.35 235.268 317.09 236.425 315.494 237.231C313.897 238.037 312.095 238.439 310.088 238.439C308.023 238.439 306.192 238.095 304.595 237.407C302.999 236.704 301.746 235.634 300.838 234.199C299.944 232.763 299.498 230.939 299.498 228.728H305.562C305.562 229.929 305.745 230.896 306.111 231.628C306.478 232.36 306.998 232.888 307.671 233.21C308.36 233.532 309.166 233.693 310.088 233.693C310.982 233.693 311.766 233.488 312.439 233.078C313.128 232.653 313.663 232.038 314.043 231.232C314.424 230.427 314.615 229.445 314.615 228.288ZM343.399 229.694C343.399 229.079 343.304 228.53 343.113 228.046C342.938 227.548 342.608 227.102 342.125 226.706C341.656 226.296 340.989 225.9 340.125 225.52C339.275 225.124 338.177 224.714 336.829 224.289C335.335 223.82 333.943 223.293 332.654 222.707C331.365 222.121 330.23 221.44 329.249 220.664C328.282 219.887 327.527 218.994 326.985 217.983C326.443 216.958 326.172 215.771 326.172 214.423C326.172 213.105 326.451 211.904 327.007 210.82C327.579 209.736 328.384 208.806 329.424 208.029C330.464 207.238 331.688 206.63 333.094 206.206C334.515 205.781 336.082 205.568 337.796 205.568C340.169 205.568 342.22 206 343.948 206.865C345.691 207.729 347.039 208.901 347.991 210.38C348.943 211.86 349.419 213.522 349.419 215.368H343.399C343.399 214.372 343.187 213.493 342.762 212.731C342.352 211.97 341.722 211.369 340.872 210.93C340.037 210.49 338.982 210.271 337.708 210.271C336.478 210.271 335.452 210.454 334.632 210.82C333.826 211.186 333.218 211.684 332.808 212.314C332.413 212.944 332.215 213.647 332.215 214.423C332.215 215.009 332.354 215.537 332.632 216.005C332.911 216.459 333.328 216.892 333.885 217.302C334.441 217.697 335.13 218.071 335.95 218.422C336.785 218.759 337.752 219.096 338.851 219.433C340.608 219.96 342.146 220.546 343.465 221.191C344.798 221.835 345.904 222.568 346.783 223.388C347.676 224.208 348.343 225.131 348.782 226.157C349.236 227.182 349.463 228.347 349.463 229.65C349.463 231.027 349.192 232.258 348.65 233.342C348.108 234.426 347.332 235.349 346.321 236.11C345.311 236.872 344.095 237.451 342.674 237.846C341.268 238.242 339.693 238.439 337.95 238.439C336.397 238.439 334.859 238.234 333.335 237.824C331.827 237.399 330.457 236.77 329.227 235.935C327.996 235.085 327.015 234.016 326.282 232.727C325.55 231.423 325.184 229.899 325.184 228.156H331.248C331.248 229.167 331.409 230.031 331.731 230.749C332.068 231.452 332.537 232.031 333.138 232.485C333.753 232.924 334.471 233.247 335.291 233.452C336.111 233.657 336.998 233.759 337.95 233.759C339.18 233.759 340.191 233.591 340.982 233.254C341.788 232.902 342.388 232.419 342.784 231.804C343.194 231.188 343.399 230.485 343.399 229.694Z" fill="black"/>
<path d="M97.437 189.395H301.563V191.592H97.437V189.395Z" fill="black"/>
</svg>
