<svg width="400" height="400" viewBox="0 0 400 400" fill="none" xmlns="http://www.w3.org/2000/svg">
<path d="M0 0H400V400H0V0Z" fill="#7E4CCB"/>
<path d="M73.4648 73.0078H78.6943L87.4395 97.0898L96.1626 73.0078H101.414L89.5269 105H85.3301L73.4648 73.0078ZM70.8281 73.0078H75.9478L76.8706 95.1343V105H70.8281V73.0078ZM98.9092 73.0078H104.051V105H98.0083V95.1343L98.9092 73.0078ZM116.729 102.363L123.101 81.2256H129.319L119.783 108.604C119.563 109.189 119.278 109.827 118.926 110.515C118.589 111.204 118.135 111.855 117.564 112.471C116.993 113.101 116.275 113.613 115.411 114.009C114.561 114.404 113.528 114.602 112.312 114.602C111.785 114.602 111.316 114.565 110.906 114.492C110.496 114.419 110.064 114.324 109.61 114.207V109.856C109.756 109.871 109.925 109.878 110.115 109.878C110.32 109.893 110.496 109.9 110.643 109.9C111.492 109.9 112.195 109.797 112.752 109.592C113.309 109.402 113.755 109.087 114.092 108.647C114.444 108.223 114.737 107.666 114.971 106.978L116.729 102.363ZM113.587 81.2256L118.97 98.7378L119.915 104.868L115.916 105.593L107.325 81.2256H113.587ZM149.49 71.25V105H143.667V71.25H149.49ZM161.18 81.2256V105H155.357V81.2256H161.18ZM154.961 75.0073C154.961 74.1431 155.254 73.4253 155.84 72.854C156.441 72.2827 157.247 71.9971 158.257 71.9971C159.268 71.9971 160.066 72.2827 160.652 72.854C161.253 73.4253 161.553 74.1431 161.553 75.0073C161.553 75.8569 161.253 76.5674 160.652 77.1387C160.066 77.71 159.268 77.9956 158.257 77.9956C157.247 77.9956 156.441 77.71 155.84 77.1387C155.254 76.5674 154.961 75.8569 154.961 75.0073ZM166.695 71.25H172.518V99.7485L171.946 105H166.695V71.25ZM187.811 92.8711V93.3325C187.811 95.105 187.613 96.731 187.217 98.2104C186.836 99.6899 186.258 100.972 185.481 102.056C184.705 103.125 183.738 103.96 182.581 104.561C181.438 105.146 180.098 105.439 178.56 105.439C177.095 105.439 175.821 105.154 174.737 104.583C173.667 104.011 172.767 103.206 172.034 102.166C171.302 101.111 170.716 99.873 170.276 98.4521C169.837 97.0166 169.507 95.4492 169.288 93.75V92.4976C169.507 90.7837 169.837 89.2163 170.276 87.7954C170.716 86.3745 171.302 85.1367 172.034 84.082C172.767 83.0273 173.667 82.2144 174.737 81.6431C175.806 81.0718 177.066 80.7861 178.516 80.7861C180.069 80.7861 181.424 81.0864 182.581 81.687C183.753 82.2729 184.72 83.1079 185.481 84.1919C186.258 85.2612 186.836 86.5356 187.217 88.0151C187.613 89.48 187.811 91.0986 187.811 92.8711ZM181.988 93.3325V92.8711C181.988 91.8604 181.907 90.9082 181.746 90.0146C181.585 89.1064 181.321 88.3081 180.955 87.6196C180.589 86.9312 180.091 86.3892 179.461 85.9937C178.831 85.5981 178.04 85.4004 177.088 85.4004C176.18 85.4004 175.403 85.5542 174.759 85.8618C174.129 86.1694 173.602 86.5942 173.177 87.1362C172.767 87.6782 172.444 88.3154 172.21 89.0479C171.99 89.7803 171.844 90.5713 171.771 91.4209V94.8486C171.873 95.9766 172.115 96.9946 172.496 97.9028C172.876 98.7964 173.44 99.5068 174.188 100.034C174.949 100.562 175.931 100.825 177.132 100.825C178.069 100.825 178.853 100.642 179.483 100.276C180.113 99.895 180.611 99.3677 180.977 98.6938C181.343 98.0054 181.6 97.207 181.746 96.2988C181.907 95.3906 181.988 94.4019 181.988 93.3325ZM197.83 86.0815V105H192.029V81.2256H197.522L197.83 86.0815ZM205.059 81.0718L204.971 86.4771C204.649 86.4185 204.283 86.3745 203.873 86.3452C203.477 86.3159 203.104 86.3013 202.752 86.3013C201.858 86.3013 201.075 86.4258 200.401 86.6748C199.727 86.9092 199.163 87.2534 198.709 87.7075C198.27 88.1616 197.933 88.7183 197.698 89.3774C197.464 90.022 197.332 90.7544 197.303 91.5747L196.05 91.4209C196.05 89.9121 196.204 88.5132 196.512 87.2241C196.819 85.9351 197.266 84.8071 197.852 83.8403C198.438 82.8735 199.17 82.1265 200.049 81.5991C200.943 81.0571 201.968 80.7861 203.125 80.7861C203.448 80.7861 203.792 80.8154 204.158 80.874C204.539 80.918 204.839 80.9839 205.059 81.0718ZM220.594 99.9463V88.9819C220.594 88.1763 220.455 87.4805 220.176 86.8945C219.898 86.3086 219.473 85.8545 218.902 85.5322C218.331 85.21 217.605 85.0488 216.727 85.0488C215.95 85.0488 215.269 85.1807 214.683 85.4443C214.112 85.708 213.672 86.0815 213.365 86.5649C213.057 87.0337 212.903 87.5757 212.903 88.1909H207.081C207.081 87.2095 207.315 86.2793 207.784 85.4004C208.252 84.5068 208.919 83.7158 209.783 83.0273C210.662 82.3242 211.709 81.7749 212.925 81.3794C214.156 80.9839 215.533 80.7861 217.056 80.7861C218.858 80.7861 220.462 81.0938 221.868 81.709C223.289 82.3096 224.402 83.2178 225.208 84.4336C226.028 85.6494 226.438 87.1802 226.438 89.0259V99.397C226.438 100.583 226.512 101.602 226.658 102.451C226.819 103.286 227.054 104.011 227.361 104.626V105H221.451C221.172 104.399 220.96 103.638 220.813 102.715C220.667 101.777 220.594 100.854 220.594 99.9463ZM221.407 90.52L221.451 93.9697H217.781C216.873 93.9697 216.075 94.0649 215.386 94.2554C214.698 94.4312 214.134 94.6948 213.694 95.0464C213.255 95.3833 212.925 95.7935 212.706 96.2769C212.486 96.7456 212.376 97.2803 212.376 97.8809C212.376 98.4668 212.508 98.9941 212.771 99.4629C213.05 99.9316 213.445 100.305 213.958 100.583C214.485 100.847 215.101 100.979 215.804 100.979C216.829 100.979 217.723 100.774 218.484 100.364C219.246 99.939 219.839 99.4263 220.264 98.8257C220.689 98.2251 220.916 97.6538 220.945 97.1118L222.615 99.6167C222.41 100.217 222.103 100.854 221.692 101.528C221.282 102.202 220.755 102.832 220.11 103.418C219.466 104.004 218.689 104.487 217.781 104.868C216.873 105.249 215.818 105.439 214.617 105.439C213.079 105.439 211.702 105.132 210.486 104.517C209.271 103.901 208.311 103.059 207.608 101.99C206.905 100.92 206.553 99.7046 206.553 98.3423C206.553 97.0825 206.788 95.9692 207.256 95.0024C207.725 94.0356 208.421 93.2227 209.344 92.5635C210.267 91.8896 211.409 91.3843 212.771 91.0474C214.148 90.6958 215.723 90.52 217.496 90.52H221.407ZM237.82 81.2256V105H231.998V81.2256H237.82ZM231.602 75.0073C231.602 74.1431 231.895 73.4253 232.481 72.854C233.082 72.2827 233.887 71.9971 234.898 71.9971C235.909 71.9971 236.707 72.2827 237.293 72.854C237.894 73.4253 238.194 74.1431 238.194 75.0073C238.194 75.8569 237.894 76.5674 237.293 77.1387C236.707 77.71 235.909 77.9956 234.898 77.9956C233.887 77.9956 233.082 77.71 232.481 77.1387C231.895 76.5674 231.602 75.8569 231.602 75.0073ZM249.158 86.0815V105H243.357V81.2256H248.851L249.158 86.0815ZM256.387 81.0718L256.299 86.4771C255.977 86.4185 255.611 86.3745 255.201 86.3452C254.805 86.3159 254.432 86.3013 254.08 86.3013C253.187 86.3013 252.403 86.4258 251.729 86.6748C251.055 86.9092 250.491 87.2534 250.037 87.7075C249.598 88.1616 249.261 88.7183 249.026 89.3774C248.792 90.022 248.66 90.7544 248.631 91.5747L247.378 91.4209C247.378 89.9121 247.532 88.5132 247.84 87.2241C248.147 85.9351 248.594 84.8071 249.18 83.8403C249.766 82.8735 250.499 82.1265 251.377 81.5991C252.271 81.0571 253.296 80.7861 254.454 80.7861C254.776 80.7861 255.12 80.8154 255.486 80.874C255.867 80.918 256.167 80.9839 256.387 81.0718ZM266.934 102.363L273.306 81.2256H279.524L269.988 108.604C269.769 109.189 269.483 109.827 269.131 110.515C268.794 111.204 268.34 111.855 267.769 112.471C267.198 113.101 266.48 113.613 265.616 114.009C264.766 114.404 263.733 114.602 262.518 114.602C261.99 114.602 261.521 114.565 261.111 114.492C260.701 114.419 260.269 114.324 259.815 114.207V109.856C259.961 109.871 260.13 109.878 260.32 109.878C260.525 109.893 260.701 109.9 260.848 109.9C261.697 109.9 262.4 109.797 262.957 109.592C263.514 109.402 263.96 109.087 264.297 108.647C264.649 108.223 264.942 107.666 265.176 106.978L266.934 102.363ZM263.792 81.2256L269.175 98.7378L270.12 104.868L266.121 105.593L257.53 81.2256H263.792ZM295.411 98.4961C295.411 97.998 295.279 97.5513 295.015 97.1558C294.751 96.7603 294.253 96.4014 293.521 96.0791C292.803 95.7422 291.749 95.4272 290.357 95.1343C289.126 94.8706 287.991 94.541 286.951 94.1455C285.911 93.75 285.018 93.2739 284.271 92.7173C283.523 92.146 282.938 91.4795 282.513 90.7178C282.103 89.9414 281.897 89.0479 281.897 88.0371C281.897 87.0557 282.11 86.1328 282.535 85.2686C282.959 84.3896 283.575 83.6206 284.38 82.9614C285.186 82.2876 286.167 81.7603 287.325 81.3794C288.482 80.9839 289.786 80.7861 291.236 80.7861C293.257 80.7861 294.993 81.1157 296.443 81.7749C297.908 82.4341 299.029 83.3423 299.805 84.4995C300.582 85.6421 300.97 86.9312 300.97 88.3667H295.169C295.169 87.7368 295.022 87.1655 294.729 86.6528C294.451 86.1401 294.019 85.73 293.433 85.4224C292.847 85.1001 292.107 84.939 291.214 84.939C290.408 84.939 289.727 85.0708 289.17 85.3345C288.628 85.5981 288.218 85.9424 287.94 86.3672C287.662 86.792 287.522 87.2607 287.522 87.7734C287.522 88.1543 287.596 88.4985 287.742 88.8062C287.903 89.0991 288.16 89.3701 288.511 89.6191C288.863 89.8682 289.339 90.0952 289.939 90.3003C290.555 90.5054 291.309 90.7031 292.203 90.8936C293.975 91.2451 295.521 91.7139 296.839 92.2998C298.172 92.8711 299.212 93.6328 299.959 94.585C300.706 95.5371 301.08 96.7529 301.08 98.2324C301.08 99.2871 300.853 100.254 300.398 101.133C299.944 101.997 299.285 102.751 298.421 103.396C297.557 104.041 296.524 104.546 295.323 104.912C294.122 105.264 292.767 105.439 291.258 105.439C289.075 105.439 287.229 105.051 285.721 104.275C284.212 103.484 283.069 102.488 282.293 101.287C281.517 100.071 281.128 98.811 281.128 97.5073H286.688C286.731 98.4302 286.98 99.1699 287.435 99.7266C287.889 100.283 288.46 100.686 289.148 100.935C289.852 101.169 290.591 101.287 291.368 101.287C292.247 101.287 292.986 101.169 293.587 100.935C294.188 100.686 294.642 100.356 294.949 99.9463C295.257 99.5215 295.411 99.0381 295.411 98.4961ZM330.457 73.0078L318.372 107.747H313.956L326.041 73.0078H330.457ZM83.9458 126.008V158H77.9033V126.008H83.9458ZM96.8438 139.829V144.597H82.3638V139.829H96.8438ZM98.5356 126.008V130.776H82.3638V126.008H98.5356ZM107.435 139.082V158H101.634V134.226H107.127L107.435 139.082ZM114.664 134.072L114.576 139.477C114.253 139.418 113.887 139.375 113.477 139.345C113.082 139.316 112.708 139.301 112.356 139.301C111.463 139.301 110.679 139.426 110.005 139.675C109.332 139.909 108.768 140.253 108.313 140.708C107.874 141.162 107.537 141.718 107.303 142.377C107.068 143.022 106.937 143.754 106.907 144.575L105.655 144.421C105.655 142.912 105.809 141.513 106.116 140.224C106.424 138.935 106.871 137.807 107.457 136.84C108.042 135.874 108.775 135.126 109.654 134.599C110.547 134.057 111.573 133.786 112.73 133.786C113.052 133.786 113.396 133.815 113.763 133.874C114.144 133.918 114.444 133.984 114.664 134.072ZM130.198 152.946V141.982C130.198 141.176 130.059 140.48 129.781 139.895C129.502 139.309 129.078 138.854 128.506 138.532C127.935 138.21 127.21 138.049 126.331 138.049C125.555 138.049 124.874 138.181 124.288 138.444C123.716 138.708 123.277 139.082 122.969 139.565C122.662 140.034 122.508 140.576 122.508 141.191H116.685C116.685 140.209 116.919 139.279 117.388 138.4C117.857 137.507 118.523 136.716 119.388 136.027C120.267 135.324 121.314 134.775 122.53 134.379C123.76 133.984 125.137 133.786 126.661 133.786C128.462 133.786 130.066 134.094 131.473 134.709C132.894 135.31 134.007 136.218 134.812 137.434C135.633 138.649 136.043 140.18 136.043 142.026V152.397C136.043 153.583 136.116 154.602 136.263 155.451C136.424 156.286 136.658 157.011 136.966 157.626V158H131.055C130.777 157.399 130.564 156.638 130.418 155.715C130.271 154.777 130.198 153.854 130.198 152.946ZM131.011 143.52L131.055 146.97H127.386C126.478 146.97 125.679 147.065 124.991 147.255C124.302 147.431 123.738 147.695 123.299 148.046C122.859 148.383 122.53 148.793 122.31 149.277C122.09 149.746 121.98 150.28 121.98 150.881C121.98 151.467 122.112 151.994 122.376 152.463C122.654 152.932 123.05 153.305 123.562 153.583C124.09 153.847 124.705 153.979 125.408 153.979C126.434 153.979 127.327 153.774 128.089 153.364C128.851 152.939 129.444 152.426 129.869 151.826C130.293 151.225 130.521 150.654 130.55 150.112L132.22 152.617C132.015 153.217 131.707 153.854 131.297 154.528C130.887 155.202 130.359 155.832 129.715 156.418C129.07 157.004 128.294 157.487 127.386 157.868C126.478 158.249 125.423 158.439 124.222 158.439C122.684 158.439 121.307 158.132 120.091 157.517C118.875 156.901 117.916 156.059 117.212 154.99C116.509 153.92 116.158 152.705 116.158 151.342C116.158 150.083 116.392 148.969 116.861 148.002C117.33 147.036 118.025 146.223 118.948 145.563C119.871 144.89 121.014 144.384 122.376 144.047C123.753 143.696 125.328 143.52 127.1 143.52H131.011ZM147.051 139.104V158H141.25V134.226H146.722L147.051 139.104ZM146.194 145.256H144.415C144.415 143.601 144.612 142.077 145.008 140.686C145.418 139.294 146.019 138.085 146.81 137.06C147.601 136.02 148.575 135.214 149.732 134.643C150.904 134.072 152.259 133.786 153.797 133.786C154.866 133.786 155.848 133.947 156.741 134.27C157.635 134.577 158.404 135.068 159.048 135.742C159.708 136.401 160.213 137.265 160.564 138.334C160.916 139.389 161.092 140.656 161.092 142.136V158H155.291V142.729C155.291 141.616 155.13 140.744 154.808 140.114C154.5 139.484 154.053 139.045 153.467 138.796C152.881 138.532 152.178 138.4 151.358 138.4C150.45 138.4 149.666 138.583 149.007 138.95C148.362 139.301 147.828 139.792 147.403 140.422C146.993 141.052 146.685 141.777 146.48 142.597C146.29 143.417 146.194 144.304 146.194 145.256ZM160.652 144.179L158.257 144.619C158.272 143.125 158.477 141.726 158.873 140.422C159.268 139.104 159.847 137.954 160.608 136.972C161.385 135.976 162.344 135.2 163.487 134.643C164.644 134.072 165.977 133.786 167.486 133.786C168.658 133.786 169.712 133.955 170.65 134.292C171.602 134.614 172.415 135.134 173.089 135.852C173.763 136.555 174.275 137.47 174.627 138.598C174.993 139.726 175.176 141.103 175.176 142.729V158H169.332V142.707C169.332 141.55 169.17 140.664 168.848 140.048C168.541 139.433 168.094 139.008 167.508 138.774C166.922 138.525 166.233 138.4 165.442 138.4C164.637 138.4 163.934 138.554 163.333 138.862C162.747 139.155 162.249 139.565 161.839 140.092C161.443 140.62 161.143 141.235 160.938 141.938C160.748 142.626 160.652 143.374 160.652 144.179ZM191.062 158.439C189.261 158.439 187.642 158.146 186.207 157.561C184.771 156.975 183.548 156.162 182.537 155.122C181.541 154.067 180.772 152.844 180.23 151.452C179.703 150.046 179.439 148.537 179.439 146.926V146.047C179.439 144.216 179.703 142.553 180.23 141.059C180.757 139.55 181.504 138.254 182.471 137.17C183.438 136.086 184.595 135.251 185.943 134.665C187.291 134.079 188.777 133.786 190.403 133.786C192.088 133.786 193.575 134.072 194.864 134.643C196.153 135.2 197.229 135.991 198.094 137.016C198.958 138.042 199.61 139.272 200.049 140.708C200.489 142.128 200.708 143.703 200.708 145.432V147.871H182.076V143.872H194.996V143.432C194.966 142.509 194.791 141.667 194.468 140.905C194.146 140.129 193.648 139.514 192.974 139.06C192.3 138.591 191.429 138.356 190.359 138.356C189.495 138.356 188.741 138.547 188.096 138.928C187.466 139.294 186.939 139.821 186.514 140.51C186.104 141.184 185.796 141.989 185.591 142.927C185.386 143.864 185.284 144.904 185.284 146.047V146.926C185.284 147.922 185.416 148.845 185.679 149.694C185.958 150.544 186.36 151.284 186.888 151.914C187.43 152.529 188.074 153.012 188.821 153.364C189.583 153.701 190.447 153.869 191.414 153.869C192.63 153.869 193.729 153.635 194.71 153.166C195.706 152.683 196.57 151.972 197.303 151.035L200.225 154.067C199.727 154.799 199.053 155.502 198.204 156.176C197.369 156.85 196.358 157.399 195.171 157.824C193.985 158.234 192.615 158.439 191.062 158.439ZM211.211 152.287L216.419 134.226H220.11L219.012 140.466L213.76 158H210.574L211.211 152.287ZM208.333 134.226L212.244 152.331L212.596 158H208.926L202.686 134.226H208.333ZM224.944 152.067L228.768 134.226H234.393L228.196 158H224.527L224.944 152.067ZM220.682 134.226L225.845 152.111L226.526 158H223.34L218.045 140.466L216.968 134.226H220.682ZM236.788 146.354V145.893C236.788 144.15 237.037 142.546 237.535 141.081C238.033 139.602 238.758 138.32 239.71 137.236C240.662 136.152 241.827 135.31 243.204 134.709C244.581 134.094 246.148 133.786 247.906 133.786C249.693 133.786 251.275 134.094 252.652 134.709C254.043 135.31 255.215 136.152 256.167 137.236C257.12 138.32 257.845 139.602 258.343 141.081C258.841 142.546 259.09 144.15 259.09 145.893V146.354C259.09 148.083 258.841 149.687 258.343 151.167C257.845 152.631 257.12 153.913 256.167 155.012C255.215 156.096 254.051 156.938 252.674 157.539C251.297 158.139 249.722 158.439 247.95 158.439C246.192 158.439 244.617 158.139 243.226 157.539C241.834 156.938 240.662 156.096 239.71 155.012C238.758 153.913 238.033 152.631 237.535 151.167C237.037 149.687 236.788 148.083 236.788 146.354ZM242.588 145.893V146.354C242.588 147.395 242.691 148.369 242.896 149.277C243.101 150.185 243.416 150.983 243.841 151.672C244.266 152.36 244.815 152.902 245.489 153.298C246.177 153.679 246.998 153.869 247.95 153.869C248.887 153.869 249.693 153.679 250.367 153.298C251.041 152.902 251.59 152.36 252.015 151.672C252.454 150.983 252.776 150.185 252.981 149.277C253.187 148.369 253.289 147.395 253.289 146.354V145.893C253.289 144.868 253.187 143.908 252.981 143.015C252.776 142.106 252.454 141.308 252.015 140.62C251.59 139.917 251.033 139.367 250.345 138.972C249.671 138.562 248.858 138.356 247.906 138.356C246.968 138.356 246.163 138.562 245.489 138.972C244.815 139.367 244.266 139.917 243.841 140.62C243.416 141.308 243.101 142.106 242.896 143.015C242.691 143.908 242.588 144.868 242.588 145.893ZM269.109 139.082V158H263.309V134.226H268.802L269.109 139.082ZM276.338 134.072L276.25 139.477C275.928 139.418 275.562 139.375 275.152 139.345C274.756 139.316 274.383 139.301 274.031 139.301C273.138 139.301 272.354 139.426 271.68 139.675C271.006 139.909 270.442 140.253 269.988 140.708C269.549 141.162 269.212 141.718 268.978 142.377C268.743 143.022 268.611 143.754 268.582 144.575L267.33 144.421C267.33 142.912 267.483 141.513 267.791 140.224C268.099 138.935 268.545 137.807 269.131 136.84C269.717 135.874 270.45 135.126 271.329 134.599C272.222 134.057 273.248 133.786 274.405 133.786C274.727 133.786 275.071 133.815 275.438 133.874C275.818 133.918 276.119 133.984 276.338 134.072ZM285.325 124.228V158H279.524V124.228H285.325ZM300.223 134.226L289.874 145.849L284.271 151.54L282.425 147.036L286.753 141.586L293.213 134.226H300.223ZM294.29 158L286.929 146.926L290.796 143.168L301.014 158H294.29ZM314.637 155.166C314.637 154.287 314.937 153.547 315.538 152.946C316.138 152.346 316.951 152.045 317.977 152.045C319.002 152.045 319.815 152.346 320.416 152.946C321.016 153.547 321.316 154.287 321.316 155.166C321.316 156.03 321.016 156.762 320.416 157.363C319.815 157.949 319.002 158.242 317.977 158.242C316.951 158.242 316.138 157.949 315.538 157.363C314.937 156.762 314.637 156.03 314.637 155.166ZM314.659 136.73C314.659 135.852 314.959 135.112 315.56 134.511C316.16 133.911 316.973 133.61 317.999 133.61C319.024 133.61 319.837 133.911 320.438 134.511C321.038 135.112 321.338 135.852 321.338 136.73C321.338 137.595 321.038 138.327 320.438 138.928C319.837 139.514 319.024 139.807 317.999 139.807C316.973 139.807 316.16 139.514 315.56 138.928C314.959 138.327 314.659 137.595 314.659 136.73ZM134.043 179.008V211H128.023V179.008H134.043ZM143.975 179.008V183.776H118.201V179.008H143.975ZM153.248 177.25V211H147.425V177.25H153.248ZM152.325 198.256H150.611C150.611 196.601 150.831 195.077 151.27 193.686C151.709 192.294 152.332 191.085 153.138 190.06C153.943 189.02 154.903 188.214 156.016 187.643C157.144 187.072 158.389 186.786 159.751 186.786C160.923 186.786 161.985 186.955 162.938 187.292C163.904 187.614 164.732 188.134 165.42 188.852C166.109 189.569 166.636 190.507 167.002 191.664C167.383 192.807 167.574 194.198 167.574 195.839V211H161.729V195.795C161.729 194.696 161.568 193.832 161.246 193.202C160.923 192.558 160.462 192.096 159.861 191.818C159.275 191.54 158.55 191.4 157.686 191.4C156.749 191.4 155.943 191.583 155.269 191.95C154.595 192.301 154.039 192.792 153.599 193.422C153.174 194.052 152.852 194.777 152.632 195.597C152.427 196.417 152.325 197.304 152.325 198.256ZM178.494 192.082V211H172.693V187.226H178.187L178.494 192.082ZM185.723 187.072L185.635 192.477C185.313 192.418 184.947 192.375 184.537 192.345C184.141 192.316 183.768 192.301 183.416 192.301C182.522 192.301 181.739 192.426 181.065 192.675C180.391 192.909 179.827 193.253 179.373 193.708C178.934 194.162 178.597 194.718 178.362 195.377C178.128 196.022 177.996 196.754 177.967 197.575L176.714 197.421C176.714 195.912 176.868 194.513 177.176 193.224C177.483 191.935 177.93 190.807 178.516 189.84C179.102 188.874 179.834 188.126 180.713 187.599C181.607 187.057 182.632 186.786 183.79 186.786C184.112 186.786 184.456 186.815 184.822 186.874C185.203 186.918 185.503 186.984 185.723 187.072ZM199.148 211.439C197.347 211.439 195.728 211.146 194.292 210.561C192.857 209.975 191.634 209.162 190.623 208.122C189.627 207.067 188.858 205.844 188.316 204.452C187.789 203.046 187.525 201.537 187.525 199.926V199.047C187.525 197.216 187.789 195.553 188.316 194.059C188.843 192.55 189.59 191.254 190.557 190.17C191.524 189.086 192.681 188.251 194.029 187.665C195.376 187.079 196.863 186.786 198.489 186.786C200.174 186.786 201.661 187.072 202.95 187.643C204.239 188.2 205.315 188.991 206.18 190.016C207.044 191.042 207.696 192.272 208.135 193.708C208.575 195.128 208.794 196.703 208.794 198.432V200.871H190.162V196.872H203.082V196.432C203.052 195.509 202.876 194.667 202.554 193.905C202.232 193.129 201.734 192.514 201.06 192.06C200.386 191.591 199.515 191.356 198.445 191.356C197.581 191.356 196.827 191.547 196.182 191.928C195.552 192.294 195.025 192.821 194.6 193.51C194.19 194.184 193.882 194.989 193.677 195.927C193.472 196.864 193.37 197.904 193.37 199.047V199.926C193.37 200.922 193.501 201.845 193.765 202.694C194.043 203.544 194.446 204.284 194.974 204.914C195.516 205.529 196.16 206.012 196.907 206.364C197.669 206.701 198.533 206.869 199.5 206.869C200.716 206.869 201.814 206.635 202.796 206.166C203.792 205.683 204.656 204.972 205.389 204.035L208.311 207.067C207.813 207.799 207.139 208.502 206.29 209.176C205.455 209.85 204.444 210.399 203.257 210.824C202.071 211.234 200.701 211.439 199.148 211.439ZM223.362 211.439C221.561 211.439 219.942 211.146 218.506 210.561C217.071 209.975 215.848 209.162 214.837 208.122C213.841 207.067 213.072 205.844 212.53 204.452C212.002 203.046 211.739 201.537 211.739 199.926V199.047C211.739 197.216 212.002 195.553 212.53 194.059C213.057 192.55 213.804 191.254 214.771 190.17C215.738 189.086 216.895 188.251 218.243 187.665C219.59 187.079 221.077 186.786 222.703 186.786C224.388 186.786 225.875 187.072 227.164 187.643C228.453 188.2 229.529 188.991 230.394 190.016C231.258 191.042 231.91 192.272 232.349 193.708C232.789 195.128 233.008 196.703 233.008 198.432V200.871H214.375V196.872H227.295V196.432C227.266 195.509 227.09 194.667 226.768 193.905C226.446 193.129 225.948 192.514 225.274 192.06C224.6 191.591 223.729 191.356 222.659 191.356C221.795 191.356 221.041 191.547 220.396 191.928C219.766 192.294 219.239 192.821 218.814 193.51C218.404 194.184 218.096 194.989 217.891 195.927C217.686 196.864 217.583 197.904 217.583 199.047V199.926C217.583 200.922 217.715 201.845 217.979 202.694C218.257 203.544 218.66 204.284 219.188 204.914C219.729 205.529 220.374 206.012 221.121 206.364C221.883 206.701 222.747 206.869 223.714 206.869C224.93 206.869 226.028 206.635 227.01 206.166C228.006 205.683 228.87 204.972 229.603 204.035L232.525 207.067C232.027 207.799 231.353 208.502 230.503 209.176C229.668 209.85 228.658 210.399 227.471 210.824C226.285 211.234 224.915 211.439 223.362 211.439ZM237.139 208.166C237.139 207.287 237.439 206.547 238.04 205.946C238.641 205.346 239.454 205.045 240.479 205.045C241.504 205.045 242.317 205.346 242.918 205.946C243.519 206.547 243.819 207.287 243.819 208.166C243.819 209.03 243.519 209.762 242.918 210.363C242.317 210.949 241.504 211.242 240.479 211.242C239.454 211.242 238.641 210.949 238.04 210.363C237.439 209.762 237.139 209.03 237.139 208.166ZM249.971 187.226H255.816V212.758C255.816 214.442 255.508 215.871 254.893 217.042C254.292 218.214 253.421 219.101 252.278 219.701C251.136 220.302 249.737 220.602 248.082 220.602C247.569 220.602 247.056 220.573 246.543 220.514C246.031 220.456 245.525 220.36 245.027 220.229L245.049 215.746C245.372 215.805 245.701 215.849 246.038 215.878C246.375 215.922 246.712 215.944 247.049 215.944C247.679 215.944 248.206 215.834 248.631 215.614C249.07 215.395 249.4 215.05 249.62 214.582C249.854 214.113 249.971 213.505 249.971 212.758V187.226ZM249.488 181.007C249.488 180.143 249.781 179.425 250.367 178.854C250.967 178.283 251.773 177.997 252.784 177.997C253.794 177.997 254.593 178.283 255.179 178.854C255.779 179.425 256.08 180.143 256.08 181.007C256.08 181.857 255.779 182.567 255.179 183.139C254.593 183.71 253.794 183.996 252.784 183.996C251.773 183.996 250.967 183.71 250.367 183.139C249.781 182.567 249.488 181.857 249.488 181.007ZM274.273 204.496C274.273 203.998 274.141 203.551 273.877 203.156C273.614 202.76 273.116 202.401 272.383 202.079C271.666 201.742 270.611 201.427 269.219 201.134C267.989 200.871 266.854 200.541 265.813 200.146C264.773 199.75 263.88 199.274 263.133 198.717C262.386 198.146 261.8 197.479 261.375 196.718C260.965 195.941 260.76 195.048 260.76 194.037C260.76 193.056 260.972 192.133 261.397 191.269C261.822 190.39 262.437 189.621 263.243 188.961C264.048 188.288 265.03 187.76 266.187 187.379C267.344 186.984 268.648 186.786 270.098 186.786C272.12 186.786 273.855 187.116 275.306 187.775C276.771 188.434 277.891 189.342 278.667 190.5C279.444 191.642 279.832 192.931 279.832 194.367H274.031C274.031 193.737 273.885 193.166 273.592 192.653C273.313 192.14 272.881 191.73 272.295 191.422C271.709 191.1 270.97 190.939 270.076 190.939C269.271 190.939 268.589 191.071 268.033 191.334C267.491 191.598 267.081 191.942 266.802 192.367C266.524 192.792 266.385 193.261 266.385 193.773C266.385 194.154 266.458 194.499 266.604 194.806C266.766 195.099 267.022 195.37 267.374 195.619C267.725 195.868 268.201 196.095 268.802 196.3C269.417 196.505 270.171 196.703 271.065 196.894C272.837 197.245 274.383 197.714 275.701 198.3C277.034 198.871 278.074 199.633 278.821 200.585C279.568 201.537 279.942 202.753 279.942 204.232C279.942 205.287 279.715 206.254 279.261 207.133C278.807 207.997 278.147 208.751 277.283 209.396C276.419 210.041 275.386 210.546 274.185 210.912C272.984 211.264 271.629 211.439 270.12 211.439C267.938 211.439 266.092 211.051 264.583 210.275C263.074 209.484 261.932 208.488 261.155 207.287C260.379 206.071 259.991 204.811 259.991 203.507H265.55C265.594 204.43 265.843 205.17 266.297 205.727C266.751 206.283 267.322 206.686 268.011 206.935C268.714 207.169 269.454 207.287 270.23 207.287C271.109 207.287 271.849 207.169 272.449 206.935C273.05 206.686 273.504 206.356 273.812 205.946C274.119 205.521 274.273 205.038 274.273 204.496ZM121.036 232.008H132.659C135.091 232.008 137.178 232.374 138.921 233.106C140.665 233.839 142.005 234.923 142.942 236.358C143.88 237.794 144.349 239.559 144.349 241.654C144.349 243.309 144.056 244.745 143.47 245.96C142.884 247.176 142.056 248.194 140.987 249.015C139.932 249.835 138.687 250.479 137.251 250.948L135.362 251.915H125.101L125.057 247.147H132.725C133.97 247.147 135.003 246.927 135.823 246.488C136.644 246.048 137.259 245.44 137.669 244.664C138.094 243.888 138.306 243.001 138.306 242.005C138.306 240.936 138.101 240.013 137.691 239.237C137.281 238.446 136.658 237.838 135.823 237.413C134.988 236.988 133.934 236.776 132.659 236.776H127.078V264H121.036V232.008ZM139.097 264L131.692 249.674L138.086 249.652L145.579 263.692V264H139.097ZM159.883 264.439C158.082 264.439 156.463 264.146 155.027 263.561C153.592 262.975 152.369 262.162 151.358 261.122C150.362 260.067 149.593 258.844 149.051 257.452C148.523 256.046 148.26 254.537 148.26 252.926V252.047C148.26 250.216 148.523 248.553 149.051 247.059C149.578 245.55 150.325 244.254 151.292 243.17C152.259 242.086 153.416 241.251 154.764 240.665C156.111 240.079 157.598 239.786 159.224 239.786C160.909 239.786 162.396 240.072 163.685 240.643C164.974 241.2 166.05 241.991 166.915 243.016C167.779 244.042 168.431 245.272 168.87 246.708C169.31 248.128 169.529 249.703 169.529 251.432V253.871H150.896V249.872H163.816V249.432C163.787 248.509 163.611 247.667 163.289 246.905C162.967 246.129 162.469 245.514 161.795 245.06C161.121 244.591 160.25 244.356 159.18 244.356C158.316 244.356 157.562 244.547 156.917 244.928C156.287 245.294 155.76 245.821 155.335 246.51C154.925 247.184 154.617 247.989 154.412 248.927C154.207 249.864 154.104 250.904 154.104 252.047V252.926C154.104 253.922 154.236 254.845 154.5 255.694C154.778 256.544 155.181 257.284 155.708 257.914C156.25 258.529 156.895 259.012 157.642 259.364C158.404 259.701 159.268 259.869 160.235 259.869C161.451 259.869 162.549 259.635 163.531 259.166C164.527 258.683 165.391 257.972 166.124 257.035L169.046 260.067C168.548 260.799 167.874 261.502 167.024 262.176C166.189 262.85 165.179 263.399 163.992 263.824C162.806 264.234 161.436 264.439 159.883 264.439ZM186.514 258.946V247.982C186.514 247.176 186.375 246.48 186.097 245.895C185.818 245.309 185.394 244.854 184.822 244.532C184.251 244.21 183.526 244.049 182.647 244.049C181.871 244.049 181.189 244.181 180.604 244.444C180.032 244.708 179.593 245.082 179.285 245.565C178.978 246.034 178.824 246.576 178.824 247.191H173.001C173.001 246.209 173.235 245.279 173.704 244.4C174.173 243.507 174.839 242.716 175.704 242.027C176.583 241.324 177.63 240.775 178.846 240.379C180.076 239.984 181.453 239.786 182.977 239.786C184.778 239.786 186.382 240.094 187.789 240.709C189.209 241.31 190.323 242.218 191.128 243.434C191.949 244.649 192.359 246.18 192.359 248.026V258.397C192.359 259.583 192.432 260.602 192.579 261.451C192.74 262.286 192.974 263.011 193.282 263.626V264H187.371C187.093 263.399 186.88 262.638 186.734 261.715C186.587 260.777 186.514 259.854 186.514 258.946ZM187.327 249.52L187.371 252.97H183.702C182.793 252.97 181.995 253.065 181.307 253.255C180.618 253.431 180.054 253.695 179.615 254.046C179.175 254.383 178.846 254.793 178.626 255.277C178.406 255.746 178.296 256.28 178.296 256.881C178.296 257.467 178.428 257.994 178.692 258.463C178.97 258.932 179.366 259.305 179.878 259.583C180.406 259.847 181.021 259.979 181.724 259.979C182.75 259.979 183.643 259.774 184.405 259.364C185.167 258.939 185.76 258.426 186.185 257.826C186.609 257.225 186.836 256.654 186.866 256.112L188.536 258.617C188.331 259.217 188.023 259.854 187.613 260.528C187.203 261.202 186.675 261.832 186.031 262.418C185.386 263.004 184.61 263.487 183.702 263.868C182.793 264.249 181.739 264.439 180.538 264.439C179 264.439 177.623 264.132 176.407 263.517C175.191 262.901 174.231 262.059 173.528 260.99C172.825 259.92 172.474 258.705 172.474 257.342C172.474 256.083 172.708 254.969 173.177 254.002C173.646 253.036 174.341 252.223 175.264 251.563C176.187 250.89 177.33 250.384 178.692 250.047C180.069 249.696 181.644 249.52 183.416 249.52H187.327ZM207.344 259.869C208.165 259.869 208.897 259.708 209.542 259.386C210.186 259.063 210.699 258.609 211.08 258.023C211.475 257.438 211.688 256.756 211.717 255.98H217.188C217.159 257.591 216.705 259.034 215.826 260.309C214.947 261.583 213.775 262.594 212.31 263.341C210.86 264.073 209.234 264.439 207.432 264.439C205.601 264.439 204.004 264.132 202.642 263.517C201.28 262.901 200.145 262.044 199.236 260.946C198.343 259.847 197.669 258.573 197.215 257.123C196.775 255.672 196.556 254.12 196.556 252.464V251.761C196.556 250.106 196.775 248.553 197.215 247.103C197.669 245.653 198.343 244.378 199.236 243.28C200.145 242.181 201.28 241.324 202.642 240.709C204.004 240.094 205.594 239.786 207.41 239.786C209.329 239.786 211.014 240.16 212.464 240.907C213.929 241.654 215.071 242.708 215.892 244.071C216.727 245.433 217.159 247.037 217.188 248.883H211.717C211.688 248.033 211.497 247.271 211.146 246.598C210.794 245.924 210.296 245.382 209.651 244.972C209.007 244.562 208.223 244.356 207.3 244.356C206.319 244.356 205.499 244.562 204.839 244.972C204.195 245.382 203.689 245.946 203.323 246.664C202.972 247.367 202.723 248.158 202.576 249.037C202.444 249.901 202.378 250.809 202.378 251.761V252.464C202.378 253.431 202.444 254.354 202.576 255.233C202.723 256.112 202.972 256.903 203.323 257.606C203.689 258.294 204.195 258.844 204.839 259.254C205.499 259.664 206.333 259.869 207.344 259.869ZM232.305 240.226V244.4H218.682V240.226H232.305ZM222.33 234.381H228.152V257.145C228.152 257.848 228.248 258.39 228.438 258.771C228.628 259.151 228.914 259.408 229.295 259.54C229.676 259.671 230.13 259.737 230.657 259.737C231.038 259.737 231.39 259.715 231.712 259.671C232.034 259.627 232.305 259.583 232.525 259.54L232.547 263.89C232.063 264.051 231.514 264.183 230.899 264.286C230.298 264.388 229.617 264.439 228.855 264.439C227.552 264.439 226.409 264.22 225.428 263.78C224.446 263.326 223.685 262.601 223.143 261.605C222.601 260.594 222.33 259.261 222.33 257.606V234.381ZM236.414 261.166C236.414 260.287 236.714 259.547 237.315 258.946C237.916 258.346 238.729 258.045 239.754 258.045C240.779 258.045 241.592 258.346 242.193 258.946C242.793 259.547 243.094 260.287 243.094 261.166C243.094 262.03 242.793 262.762 242.193 263.363C241.592 263.949 240.779 264.242 239.754 264.242C238.729 264.242 237.916 263.949 237.315 263.363C236.714 262.762 236.414 262.03 236.414 261.166ZM249.246 240.226H255.091V265.758C255.091 267.442 254.783 268.871 254.168 270.042C253.567 271.214 252.696 272.101 251.553 272.701C250.411 273.302 249.012 273.602 247.356 273.602C246.844 273.602 246.331 273.573 245.818 273.514C245.306 273.456 244.8 273.36 244.302 273.229L244.324 268.746C244.646 268.805 244.976 268.849 245.313 268.878C245.65 268.922 245.987 268.944 246.324 268.944C246.954 268.944 247.481 268.834 247.906 268.614C248.345 268.395 248.675 268.05 248.895 267.582C249.129 267.113 249.246 266.505 249.246 265.758V240.226ZM248.763 234.007C248.763 233.143 249.056 232.425 249.642 231.854C250.242 231.283 251.048 230.997 252.059 230.997C253.069 230.997 253.868 231.283 254.454 231.854C255.054 232.425 255.354 233.143 255.354 234.007C255.354 234.857 255.054 235.567 254.454 236.139C253.868 236.71 253.069 236.996 252.059 236.996C251.048 236.996 250.242 236.71 249.642 236.139C249.056 235.567 248.763 234.857 248.763 234.007ZM273.548 257.496C273.548 256.998 273.416 256.551 273.152 256.156C272.889 255.76 272.391 255.401 271.658 255.079C270.94 254.742 269.886 254.427 268.494 254.134C267.264 253.871 266.128 253.541 265.088 253.146C264.048 252.75 263.155 252.274 262.408 251.717C261.661 251.146 261.075 250.479 260.65 249.718C260.24 248.941 260.035 248.048 260.035 247.037C260.035 246.056 260.247 245.133 260.672 244.269C261.097 243.39 261.712 242.621 262.518 241.961C263.323 241.288 264.305 240.76 265.462 240.379C266.619 239.984 267.923 239.786 269.373 239.786C271.395 239.786 273.13 240.116 274.581 240.775C276.045 241.434 277.166 242.342 277.942 243.5C278.719 244.642 279.107 245.931 279.107 247.367H273.306C273.306 246.737 273.16 246.166 272.867 245.653C272.588 245.14 272.156 244.73 271.57 244.422C270.984 244.1 270.245 243.939 269.351 243.939C268.545 243.939 267.864 244.071 267.308 244.334C266.766 244.598 266.355 244.942 266.077 245.367C265.799 245.792 265.66 246.261 265.66 246.773C265.66 247.154 265.733 247.499 265.879 247.806C266.041 248.099 266.297 248.37 266.648 248.619C267 248.868 267.476 249.095 268.077 249.3C268.692 249.505 269.446 249.703 270.34 249.894C272.112 250.245 273.658 250.714 274.976 251.3C276.309 251.871 277.349 252.633 278.096 253.585C278.843 254.537 279.217 255.753 279.217 257.232C279.217 258.287 278.99 259.254 278.536 260.133C278.082 260.997 277.422 261.751 276.558 262.396C275.694 263.041 274.661 263.546 273.46 263.912C272.259 264.264 270.904 264.439 269.395 264.439C267.212 264.439 265.367 264.051 263.858 263.275C262.349 262.484 261.207 261.488 260.43 260.287C259.654 259.071 259.266 257.811 259.266 256.507H264.825C264.869 257.43 265.118 258.17 265.572 258.727C266.026 259.283 266.597 259.686 267.286 259.935C267.989 260.169 268.729 260.287 269.505 260.287C270.384 260.287 271.124 260.169 271.724 259.935C272.325 259.686 272.779 259.356 273.086 258.946C273.394 258.521 273.548 258.038 273.548 257.496ZM163.75 300.455V312.913C163.282 313.514 162.542 314.166 161.531 314.869C160.535 315.572 159.231 316.18 157.62 316.692C156.009 317.19 154.031 317.439 151.688 317.439C149.651 317.439 147.791 317.103 146.106 316.429C144.422 315.74 142.972 314.737 141.756 313.418C140.54 312.1 139.603 310.489 138.943 308.584C138.284 306.68 137.955 304.505 137.955 302.059V299.949C137.955 297.503 138.262 295.328 138.877 293.423C139.507 291.519 140.401 289.908 141.558 288.589C142.73 287.271 144.129 286.268 145.755 285.579C147.396 284.891 149.227 284.546 151.248 284.546C153.958 284.546 156.185 284.993 157.928 285.887C159.686 286.78 161.033 288.011 161.971 289.578C162.908 291.131 163.494 292.918 163.729 294.939H157.84C157.679 293.826 157.356 292.852 156.873 292.017C156.39 291.167 155.701 290.508 154.808 290.04C153.929 289.556 152.786 289.314 151.38 289.314C150.193 289.314 149.146 289.549 148.238 290.018C147.33 290.486 146.568 291.167 145.953 292.061C145.337 292.955 144.869 294.061 144.546 295.379C144.239 296.697 144.085 298.206 144.085 299.905V302.059C144.085 303.772 144.261 305.296 144.612 306.629C144.964 307.947 145.469 309.061 146.128 309.969C146.802 310.862 147.63 311.543 148.611 312.012C149.607 312.466 150.735 312.693 151.995 312.693C153.138 312.693 154.083 312.598 154.83 312.408C155.591 312.203 156.199 311.961 156.653 311.683C157.107 311.404 157.459 311.133 157.708 310.87V304.871H151.358V300.455H163.75ZM179.703 317.439C177.901 317.439 176.282 317.146 174.847 316.561C173.411 315.975 172.188 315.162 171.177 314.122C170.181 313.067 169.412 311.844 168.87 310.452C168.343 309.046 168.079 307.537 168.079 305.926V305.047C168.079 303.216 168.343 301.553 168.87 300.059C169.397 298.55 170.145 297.254 171.111 296.17C172.078 295.086 173.235 294.251 174.583 293.665C175.931 293.079 177.417 292.786 179.043 292.786C180.728 292.786 182.215 293.072 183.504 293.643C184.793 294.2 185.87 294.991 186.734 296.016C187.598 297.042 188.25 298.272 188.689 299.708C189.129 301.128 189.349 302.703 189.349 304.432V306.871H170.716V302.872H183.636V302.432C183.606 301.509 183.431 300.667 183.108 299.905C182.786 299.129 182.288 298.514 181.614 298.06C180.94 297.591 180.069 297.356 179 297.356C178.135 297.356 177.381 297.547 176.736 297.928C176.106 298.294 175.579 298.821 175.154 299.51C174.744 300.184 174.437 300.989 174.231 301.927C174.026 302.864 173.924 303.904 173.924 305.047V305.926C173.924 306.922 174.056 307.845 174.319 308.694C174.598 309.544 175 310.284 175.528 310.914C176.07 311.529 176.714 312.012 177.461 312.364C178.223 312.701 179.087 312.869 180.054 312.869C181.27 312.869 182.369 312.635 183.35 312.166C184.346 311.683 185.21 310.972 185.943 310.035L188.865 313.067C188.367 313.799 187.693 314.502 186.844 315.176C186.009 315.85 184.998 316.399 183.812 316.824C182.625 317.234 181.255 317.439 179.703 317.439ZM206.312 310.496C206.312 309.998 206.18 309.551 205.916 309.156C205.652 308.76 205.154 308.401 204.422 308.079C203.704 307.742 202.649 307.427 201.258 307.134C200.027 306.871 198.892 306.541 197.852 306.146C196.812 305.75 195.918 305.274 195.171 304.717C194.424 304.146 193.838 303.479 193.414 302.718C193.003 301.941 192.798 301.048 192.798 300.037C192.798 299.056 193.011 298.133 193.436 297.269C193.86 296.39 194.476 295.621 195.281 294.961C196.087 294.288 197.068 293.76 198.226 293.379C199.383 292.984 200.687 292.786 202.137 292.786C204.158 292.786 205.894 293.116 207.344 293.775C208.809 294.434 209.93 295.342 210.706 296.5C211.482 297.642 211.871 298.931 211.871 300.367H206.07C206.07 299.737 205.923 299.166 205.63 298.653C205.352 298.14 204.92 297.73 204.334 297.422C203.748 297.1 203.008 296.939 202.115 296.939C201.309 296.939 200.628 297.071 200.071 297.334C199.529 297.598 199.119 297.942 198.841 298.367C198.562 298.792 198.423 299.261 198.423 299.773C198.423 300.154 198.497 300.499 198.643 300.806C198.804 301.099 199.061 301.37 199.412 301.619C199.764 301.868 200.24 302.095 200.84 302.3C201.456 302.505 202.21 302.703 203.104 302.894C204.876 303.245 206.421 303.714 207.74 304.3C209.073 304.871 210.113 305.633 210.86 306.585C211.607 307.537 211.98 308.753 211.98 310.232C211.98 311.287 211.753 312.254 211.299 313.133C210.845 313.997 210.186 314.751 209.322 315.396C208.458 316.041 207.425 316.546 206.224 316.912C205.022 317.264 203.667 317.439 202.159 317.439C199.976 317.439 198.13 317.051 196.622 316.275C195.113 315.484 193.97 314.488 193.194 313.287C192.417 312.071 192.029 310.811 192.029 309.507H197.588C197.632 310.43 197.881 311.17 198.335 311.727C198.79 312.283 199.361 312.686 200.049 312.935C200.752 313.169 201.492 313.287 202.269 313.287C203.147 313.287 203.887 313.169 204.488 312.935C205.088 312.686 205.542 312.356 205.85 311.946C206.158 311.521 206.312 311.038 206.312 310.496ZM229.493 311.946V300.982C229.493 300.176 229.354 299.48 229.075 298.895C228.797 298.309 228.372 297.854 227.801 297.532C227.229 297.21 226.504 297.049 225.625 297.049C224.849 297.049 224.168 297.181 223.582 297.444C223.011 297.708 222.571 298.082 222.264 298.565C221.956 299.034 221.802 299.576 221.802 300.191H215.979C215.979 299.209 216.214 298.279 216.683 297.4C217.151 296.507 217.818 295.716 218.682 295.027C219.561 294.324 220.608 293.775 221.824 293.379C223.055 292.984 224.432 292.786 225.955 292.786C227.757 292.786 229.361 293.094 230.767 293.709C232.188 294.31 233.301 295.218 234.107 296.434C234.927 297.649 235.337 299.18 235.337 301.026V311.397C235.337 312.583 235.411 313.602 235.557 314.451C235.718 315.286 235.953 316.011 236.26 316.626V317H230.35C230.071 316.399 229.859 315.638 229.712 314.715C229.566 313.777 229.493 312.854 229.493 311.946ZM230.306 302.52L230.35 305.97H226.68C225.772 305.97 224.974 306.065 224.285 306.255C223.597 306.431 223.033 306.695 222.593 307.046C222.154 307.383 221.824 307.793 221.604 308.277C221.385 308.746 221.275 309.28 221.275 309.881C221.275 310.467 221.407 310.994 221.67 311.463C221.949 311.932 222.344 312.305 222.857 312.583C223.384 312.847 224 312.979 224.703 312.979C225.728 312.979 226.622 312.774 227.383 312.364C228.145 311.939 228.738 311.426 229.163 310.826C229.588 310.225 229.815 309.654 229.844 309.112L231.514 311.617C231.309 312.217 231.001 312.854 230.591 313.528C230.181 314.202 229.654 314.832 229.009 315.418C228.365 316.004 227.588 316.487 226.68 316.868C225.772 317.249 224.717 317.439 223.516 317.439C221.978 317.439 220.601 317.132 219.385 316.517C218.169 315.901 217.21 315.059 216.507 313.99C215.804 312.92 215.452 311.705 215.452 310.342C215.452 309.083 215.687 307.969 216.155 307.002C216.624 306.036 217.32 305.223 218.243 304.563C219.166 303.89 220.308 303.384 221.67 303.047C223.047 302.696 224.622 302.52 226.395 302.52H230.306ZM246.368 297.796V326.141H240.545V293.226H245.928L246.368 297.796ZM261.639 304.871V305.333C261.639 307.061 261.434 308.665 261.023 310.145C260.628 311.609 260.042 312.891 259.266 313.99C258.489 315.074 257.522 315.923 256.365 316.539C255.223 317.139 253.904 317.439 252.41 317.439C250.945 317.439 249.671 317.161 248.587 316.604C247.503 316.033 246.587 315.228 245.84 314.188C245.093 313.147 244.493 311.939 244.039 310.562C243.599 309.17 243.27 307.654 243.05 306.014V304.542C243.27 302.798 243.599 301.216 244.039 299.795C244.493 298.36 245.093 297.122 245.84 296.082C246.587 295.027 247.496 294.214 248.565 293.643C249.649 293.072 250.916 292.786 252.366 292.786C253.875 292.786 255.201 293.072 256.343 293.643C257.5 294.214 258.475 295.035 259.266 296.104C260.057 297.173 260.65 298.448 261.045 299.927C261.441 301.407 261.639 303.055 261.639 304.871ZM255.816 305.333V304.871C255.816 303.816 255.721 302.842 255.53 301.949C255.34 301.041 255.047 300.25 254.651 299.576C254.256 298.887 253.743 298.353 253.113 297.972C252.483 297.591 251.722 297.4 250.828 297.4C249.935 297.4 249.166 297.547 248.521 297.84C247.876 298.133 247.349 298.55 246.939 299.092C246.529 299.634 246.207 300.279 245.972 301.026C245.752 301.758 245.606 302.571 245.533 303.465V307.112C245.665 308.196 245.921 309.17 246.302 310.035C246.683 310.899 247.239 311.587 247.972 312.1C248.719 312.613 249.686 312.869 250.872 312.869C251.766 312.869 252.527 312.671 253.157 312.276C253.787 311.88 254.3 311.338 254.695 310.65C255.091 309.947 255.376 309.141 255.552 308.233C255.728 307.325 255.816 306.358 255.816 305.333Z" fill="black"/>
</svg>
